<?xml version="1.0" encoding="UTF-8" standalone="no"?>
<!-- Created with Inkscape (http://www.inkscape.org/) -->

<svg
   xmlns:ns0="http://www.iki.fi/pav/software/textext/"
   xmlns:osb="http://www.openswatchbook.org/uri/2009/osb"
   xmlns:dc="http://purl.org/dc/elements/1.1/"
   xmlns:cc="http://creativecommons.org/ns#"
   xmlns:rdf="http://www.w3.org/1999/02/22-rdf-syntax-ns#"
   xmlns:svg="http://www.w3.org/2000/svg"
   xmlns="http://www.w3.org/2000/svg"
   xmlns:xlink="http://www.w3.org/1999/xlink"
   xmlns:sodipodi="http://sodipodi.sourceforge.net/DTD/sodipodi-0.dtd"
   xmlns:inkscape="http://www.inkscape.org/namespaces/inkscape"
   width="14.02814cm"
   height="13.19331cm"
   viewBox="0 0 140.28139 131.9331"
   version="1.1"
   id="svg8"
   inkscape:version="0.92.5 (2060ec1f9f, 2020-04-08)"
   sodipodi:docname="a_m.svg"
   inkscape:export-filename="/home/sciarra/Documents/My_Articles/Staggered_VaryingNf/a_m.png"
   inkscape:export-xdpi="96"
   inkscape:export-ydpi="96">
  <defs
     id="defs2">
    <inkscape:path-effect
       effect="spiro"
       id="path-effect2324"
       is_visible="true" />
    <inkscape:path-effect
       effect="spiro"
       id="path-effect2181"
       is_visible="true" />
    <inkscape:path-effect
       effect="spiro"
       id="path-effect1671"
       is_visible="true" />
    <inkscape:path-effect
       effect="spiro"
       id="path-effect1663"
       is_visible="true" />
    <inkscape:path-effect
       effect="spiro"
       id="path-effect1659"
       is_visible="true" />
    <inkscape:path-effect
       effect="spiro"
       id="path-effect1647"
       is_visible="true" />
    <linearGradient
       id="linearGradient2836"
       osb:paint="solid">
      <stop
         style="stop-color:#000000;stop-opacity:1;"
         offset="0"
         id="stop2834" />
    </linearGradient>
    <g
       id="g5183">
      <symbol
         id="textext-5f6c7f47-0"
         overflow="visible"
         style="overflow:visible">
        <path
           id="path5186"
           d=""
           style="stroke:none"
           inkscape:connector-curvature="0" />
      </symbol>
      <symbol
         id="textext-5f6c7f47-1"
         overflow="visible"
         style="overflow:visible">
        <path
           id="path5189"
           d="m 0.875,-0.59375 c -0.03125,0.15625 -0.09375,0.390625 -0.09375,0.4375 0,0.171875 0.140625,0.265625 0.296875,0.265625 0.125,0 0.296875,-0.078125 0.375,-0.28125 0,-0.015625 0.125,-0.484375 0.1875,-0.734375 l 0.21875,-0.890625 C 1.90625,-2.03125 1.96875,-2.25 2.03125,-2.46875 c 0.03125,-0.171875 0.109375,-0.46875 0.125,-0.5 0.140625,-0.3125 0.671875,-1.21875 1.625,-1.21875 0.453125,0 0.53125,0.375 0.53125,0.703125 0,0.25 -0.0625,0.53125 -0.140625,0.828125 L 3.890625,-1.5 3.6875,-0.75 c -0.03125,0.203125 -0.125,0.546875 -0.125,0.59375 0,0.171875 0.140625,0.265625 0.28125,0.265625 0.3125,0 0.375,-0.25 0.453125,-0.5625 0.140625,-0.5625 0.515625,-2.015625 0.59375,-2.40625 0.03125,-0.125 0.5625,-1.328125 1.65625,-1.328125 0.421875,0 0.53125,0.34375 0.53125,0.703125 0,0.5625 -0.421875,1.703125 -0.625,2.234375 -0.078125,0.234375 -0.125,0.34375 -0.125,0.546875 0,0.46875 0.34375,0.8125 0.8125,0.8125 0.9375,0 1.3125,-1.453125 1.3125,-1.53125 0,-0.109375 -0.09375,-0.109375 -0.125,-0.109375 -0.09375,0 -0.09375,0.03125 -0.140625,0.1875 -0.15625,0.53125 -0.46875,1.234375 -1.015625,1.234375 -0.171875,0 -0.25,-0.09375 -0.25,-0.328125 0,-0.25 0.09375,-0.484375 0.1875,-0.703125 0.1875,-0.53125 0.609375,-1.625 0.609375,-2.203125 0,-0.640625 -0.40625,-1.0625 -1.15625,-1.0625 -0.734375,0 -1.25,0.4375 -1.625,0.96875 0,-0.125 -0.03125,-0.46875 -0.3125,-0.703125 -0.25,-0.21875 -0.5625,-0.265625 -0.8125,-0.265625 -0.90625,0 -1.390625,0.640625 -1.5625,0.875 -0.046875,-0.578125 -0.46875,-0.875 -0.921875,-0.875 -0.453125,0 -0.640625,0.390625 -0.734375,0.5625 -0.171875,0.359375 -0.296875,0.9375 -0.296875,0.96875 0,0.109375 0.09375,0.109375 0.109375,0.109375 0.109375,0 0.109375,-0.015625 0.171875,-0.234375 0.171875,-0.703125 0.375,-1.1875 0.734375,-1.1875 0.15625,0 0.296875,0.078125 0.296875,0.453125 0,0.21875 -0.03125,0.328125 -0.15625,0.84375 z m 0,0"
           style="stroke:none"
           inkscape:connector-curvature="0" />
      </symbol>
      <symbol
         id="textext-5f6c7f47-2"
         overflow="visible"
         style="overflow:visible">
        <path
           id="path5192"
           d=""
           style="stroke:none"
           inkscape:connector-curvature="0" />
      </symbol>
      <symbol
         id="textext-5f6c7f47-3"
         overflow="visible"
         style="overflow:visible">
        <path
           id="path5195"
           d="M 2.953125,-1.125 C 2.90625,-0.984375 2.84375,-0.71875 2.84375,-0.71875 2.703125,-0.5 2.421875,-0.125 2,-0.125 c -0.484375,0 -0.484375,-0.453125 -0.484375,-0.578125 0,-0.40625 0.1875,-0.90625 0.390625,-1.421875 C 1.953125,-2.265625 2,-2.359375 2,-2.46875 2,-2.84375 1.6875,-3.078125 1.34375,-3.078125 0.640625,-3.078125 0.328125,-2.125 0.328125,-2 c 0,0.078125 0.09375,0.078125 0.125,0.078125 0.09375,0 0.09375,-0.03125 0.125,-0.109375 0.15625,-0.5625 0.46875,-0.84375 0.734375,-0.84375 0.125,0 0.171875,0.078125 0.171875,0.234375 0,0.171875 -0.046875,0.3125 -0.125,0.46875 -0.375,0.96875 -0.375,1.171875 -0.375,1.359375 0,0.109375 0,0.4375 0.265625,0.65625 0.203125,0.171875 0.46875,0.21875 0.71875,0.21875 0.4375,0 0.671875,-0.234375 0.90625,-0.453125 C 3.03125,0.0625 3.484375,0.0625 3.578125,0.0625 3.8125,0.0625 4,-0.0625 4.125,-0.296875 4.28125,-0.578125 4.375,-0.96875 4.375,-1 c 0,-0.09375 -0.09375,-0.09375 -0.109375,-0.09375 -0.109375,0 -0.109375,0.03125 -0.15625,0.21875 -0.09375,0.328125 -0.21875,0.75 -0.515625,0.75 -0.171875,0 -0.234375,-0.15625 -0.234375,-0.34375 0,-0.109375 0.0625,-0.375 0.109375,-0.546875 0.046875,-0.1875 0.125,-0.46875 0.15625,-0.625 l 0.15625,-0.625 C 3.828125,-2.4375 3.90625,-2.75 3.90625,-2.78125 3.90625,-2.921875 3.796875,-3 3.671875,-3 c -0.25,0 -0.3125,0.203125 -0.359375,0.421875 z m 0,0"
           style="stroke:none"
           inkscape:connector-curvature="0" />
      </symbol>
      <symbol
         id="textext-5f6c7f47-4"
         overflow="visible"
         style="overflow:visible">
        <path
           id="path5198"
           d="m 1.46875,-0.109375 c 0,0.375 -0.0625,0.828125 -0.546875,1.265625 C 0.90625,1.1875 0.875,1.21875 0.875,1.25 c 0,0.046875 0.0625,0.09375 0.09375,0.09375 0.109375,0 0.703125,-0.5625 0.703125,-1.390625 0,-0.421875 -0.171875,-0.75 -0.5,-0.75 -0.21875,0 -0.390625,0.171875 -0.390625,0.390625 C 0.78125,-0.1875 0.9375,0 1.1875,0 1.359375,0 1.46875,-0.109375 1.46875,-0.109375 Z m 0,0"
           style="stroke:none"
           inkscape:connector-curvature="0" />
      </symbol>
      <symbol
         id="textext-5f6c7f47-5"
         overflow="visible"
         style="overflow:visible">
        <path
           id="path5201"
           d="M 3.984375,-4.625 C 3.984375,-4.640625 4,-4.734375 4,-4.734375 4,-4.78125 3.984375,-4.84375 3.890625,-4.84375 3.75,-4.84375 3.171875,-4.78125 3,-4.765625 c -0.046875,0 -0.15625,0.015625 -0.15625,0.15625 0,0.09375 0.109375,0.09375 0.1875,0.09375 0.328125,0 0.328125,0.0625 0.328125,0.109375 0,0.046875 0,0.09375 -0.015625,0.15625 L 2.9375,-2.65625 c -0.140625,-0.234375 -0.375,-0.421875 -0.71875,-0.421875 -0.890625,0 -1.796875,0.984375 -1.796875,1.984375 0,0.6875 0.453125,1.15625 1.0625,1.15625 0.375,0 0.703125,-0.203125 0.984375,-0.484375 C 2.59375,0 3,0.0625 3.1875,0.0625 c 0.25,0 0.421875,-0.140625 0.546875,-0.359375 0.15625,-0.28125 0.25,-0.671875 0.25,-0.703125 0,-0.09375 -0.09375,-0.09375 -0.109375,-0.09375 -0.109375,0 -0.109375,0.03125 -0.15625,0.21875 C 3.625,-0.53125 3.5,-0.125 3.203125,-0.125 3.03125,-0.125 2.96875,-0.28125 2.96875,-0.46875 c 0,-0.125 0.015625,-0.1875 0.046875,-0.28125 z M 2.5,-0.875 C 2.453125,-0.671875 2.296875,-0.53125 2.140625,-0.40625 2.078125,-0.34375 1.796875,-0.125 1.5,-0.125 c -0.265625,0 -0.515625,-0.1875 -0.515625,-0.671875 0,-0.375 0.203125,-1.140625 0.375,-1.421875 0.3125,-0.5625 0.671875,-0.65625 0.859375,-0.65625 0.484375,0 0.625,0.53125 0.625,0.609375 0,0.015625 -0.015625,0.078125 -0.015625,0.09375 z m 0,0"
           style="stroke:none"
           inkscape:connector-curvature="0" />
      </symbol>
    </g>
    <g
       id="g6147">
      <symbol
         overflow="visible"
         id="textext-7008435c-0"
         style="overflow:visible">
        <path
           style="stroke:none"
           d=""
           id="path6150"
           inkscape:connector-curvature="0" />
      </symbol>
      <symbol
         overflow="visible"
         id="textext-7008435c-1"
         style="overflow:visible">
        <path
           style="stroke:none"
           d="m 4.578125,-3.1875 c 0,-0.796875 -0.046875,-1.59375 -0.390625,-2.328125 -0.453125,-0.96875 -1.28125,-1.125 -1.6875,-1.125 -0.609375,0 -1.328125,0.265625 -1.75,1.1875 -0.3125,0.6875 -0.359375,1.46875 -0.359375,2.265625 0,0.75 0.03125,1.640625 0.453125,2.40625 0.421875,0.796875 1.15625,1 1.640625,1 0.53125,0 1.296875,-0.203125 1.734375,-1.15625 0.3125,-0.6875 0.359375,-1.46875 0.359375,-2.25 z M 2.484375,0 C 2.09375,0 1.5,-0.25 1.328125,-1.203125 1.21875,-1.796875 1.21875,-2.71875 1.21875,-3.3125 c 0,-0.640625 0,-1.296875 0.078125,-1.828125 0.1875,-1.1875 0.9375,-1.28125 1.1875,-1.28125 0.328125,0 0.984375,0.1875 1.171875,1.171875 0.109375,0.5625 0.109375,1.3125 0.109375,1.9375 0,0.75 0,1.421875 -0.109375,2.0625 C 3.5,-0.296875 2.9375,0 2.484375,0 Z m 0,0"
           id="path6153"
           inkscape:connector-curvature="0" />
      </symbol>
    </g>
    <g
       id="g9441">
      <symbol
         style="overflow:visible"
         overflow="visible"
         id="textext-ff9d4d69-0">
        <path
           inkscape:connector-curvature="0"
           style="stroke:none"
           d=""
           id="path9444" />
      </symbol>
      <symbol
         style="overflow:visible"
         overflow="visible"
         id="textext-ff9d4d69-1">
        <path
           inkscape:connector-curvature="0"
           style="stroke:none"
           d="m 8.078125,-6.78125 c 0,-0.046875 0.015625,-0.109375 0.015625,-0.140625 0,-0.03125 -0.015625,-0.109375 -0.109375,-0.109375 -0.015625,0 -0.0625,0 -0.15625,0.109375 l -0.625,0.734375 C 6.765625,-6.875 6.1875,-7.03125 5.6875,-7.03125 c -2.046875,0 -4.1875,2.25 -4.1875,4.59375 0,1.625 1.0625,2.65625 2.4375,2.65625 1.9375,0 3.03125,-2.125 3.03125,-2.609375 C 6.96875,-2.5 6.875,-2.5 6.8125,-2.5 c -0.046875,0 -0.125,0 -0.15625,0.09375 -0.5,1.671875 -1.75,2.3125 -2.578125,2.3125 -0.84375,0 -1.71875,-0.546875 -1.71875,-1.96875 0,-0.625 0.25,-2.1875 1.046875,-3.28125 0.6875,-0.921875 1.59375,-1.375 2.359375,-1.375 1.0625,0 1.421875,0.953125 1.421875,1.828125 0,0.25 -0.046875,0.578125 -0.046875,0.609375 0,0.09375 0.09375,0.09375 0.140625,0.09375 0.109375,0 0.140625,-0.015625 0.1875,-0.171875 z m 0,0"
           id="path9447" />
      </symbol>
      <symbol
         style="overflow:visible"
         overflow="visible"
         id="textext-ff9d4d69-2">
        <path
           inkscape:connector-curvature="0"
           style="stroke:none"
           d="m 2.578125,-2.875 c 0,-0.03125 0.453125,-1.3125 1.3125,-1.3125 0.046875,0 0.328125,0 0.53125,0.140625 C 4.0625,-3.9375 4.03125,-3.625 4.03125,-3.5625 c 0,0.125 0.09375,0.3125 0.359375,0.3125 0.171875,0 0.484375,-0.140625 0.484375,-0.53125 0,-0.515625 -0.640625,-0.625 -0.984375,-0.625 -0.6875,0 -1.046875,0.5 -1.203125,0.71875 -0.109375,-0.53125 -0.5,-0.71875 -0.828125,-0.71875 -0.359375,0 -0.546875,0.234375 -0.71875,0.53125 -0.1875,0.390625 -0.3125,0.984375 -0.3125,1 0,0.109375 0.09375,0.109375 0.15625,0.109375 0.125,0 0.125,-0.015625 0.1875,-0.234375 0.171875,-0.703125 0.359375,-1.1875 0.671875,-1.1875 0.265625,0 0.265625,0.296875 0.265625,0.40625 0,0.15625 -0.03125,0.34375 -0.078125,0.5 l -0.75,2.984375 c -0.015625,0.0625 -0.03125,0.125 -0.03125,0.140625 0,0.109375 0.078125,0.265625 0.28125,0.265625 0.296875,0 0.375,-0.28125 0.390625,-0.375 z m 0,0"
           id="path9450" />
      </symbol>
      <symbol
         style="overflow:visible"
         overflow="visible"
         id="textext-ff9d4d69-3">
        <path
           inkscape:connector-curvature="0"
           style="stroke:none"
           d="m 5.078125,-2.765625 c 0,-0.953125 -0.59375,-1.640625 -1.453125,-1.640625 -1.25,0 -2.53125,1.421875 -2.53125,2.875 0,1.015625 0.625,1.640625 1.453125,1.640625 1.234375,0 2.53125,-1.421875 2.53125,-2.875 z m -2.53125,2.65625 c -0.390625,0 -0.75,-0.3125 -0.75,-1.03125 0,-0.5 0.25,-1.59375 0.578125,-2.140625 0.359375,-0.609375 0.84375,-0.90625 1.234375,-0.90625 0.484375,0 0.765625,0.4375 0.765625,1.03125 0,0.421875 -0.21875,1.453125 -0.53125,2.046875 -0.296875,0.546875 -0.796875,1 -1.296875,1 z m 0,0"
           id="path9453" />
      </symbol>
      <symbol
         style="overflow:visible"
         overflow="visible"
         id="textext-ff9d4d69-4">
        <path
           inkscape:connector-curvature="0"
           style="stroke:none"
           d="m 2.46875,-1.96875 c 0.4375,0.109375 0.875,0.203125 0.875,0.75 0,0.3125 -0.265625,1.109375 -1.296875,1.109375 -0.21875,0 -0.796875,-0.046875 -0.953125,-0.5625 0.515625,-0.046875 0.515625,-0.46875 0.515625,-0.484375 0,-0.1875 -0.140625,-0.3125 -0.34375,-0.3125 -0.234375,0 -0.515625,0.15625 -0.515625,0.609375 0,0.609375 0.578125,0.96875 1.296875,0.96875 1.484375,0 1.875,-1.21875 1.875,-1.671875 0,-0.875 -0.78125,-1.046875 -1.1875,-1.140625 -0.28125,-0.0625 -0.640625,-0.140625 -0.640625,-0.5625 0,-0.25 0.203125,-0.921875 1,-0.921875 0.28125,0 0.640625,0.09375 0.75,0.484375 -0.3125,0.046875 -0.390625,0.3125 -0.390625,0.40625 0,0.109375 0.0625,0.28125 0.296875,0.28125 0.171875,0 0.421875,-0.109375 0.421875,-0.546875 0,-0.453125 -0.40625,-0.84375 -1.0625,-0.84375 -1.171875,0 -1.578125,0.953125 -1.578125,1.46875 0,0.78125 0.65625,0.90625 0.9375,0.96875 z m 0,0"
           id="path9456" />
      </symbol>
      <symbol
         style="overflow:visible"
         overflow="visible"
         id="textext-ff9d4d69-5">
        <path
           inkscape:connector-curvature="0"
           style="stroke:none"
           d="m 4.921875,-3.75 c 0,-0.34375 -0.125,-0.65625 -0.421875,-0.65625 -0.21875,0 -0.46875,0.234375 -0.46875,0.453125 0,0.140625 0.0625,0.203125 0.125,0.28125 0.234375,0.25 0.265625,0.578125 0.265625,0.78125 0,0.28125 -0.46875,2.78125 -1.609375,2.78125 -0.546875,0 -0.65625,-0.5 -0.65625,-0.828125 0,-0.578125 0.328125,-1.4375 0.59375,-2.15625 0.046875,-0.171875 0.109375,-0.3125 0.109375,-0.5 0,-0.5 -0.328125,-0.8125 -0.75,-0.8125 -0.9375,0 -1.28125,1.46875 -1.28125,1.53125 0,0.109375 0.09375,0.109375 0.15625,0.109375 0.125,0 0.125,-0.03125 0.171875,-0.171875 0.078125,-0.296875 0.34375,-1.25 0.921875,-1.25 0.109375,0 0.21875,0.03125 0.21875,0.296875 0,0.234375 -0.09375,0.5 -0.234375,0.890625 -0.3125,0.84375 -0.5,1.4375 -0.5,1.90625 0,0.921875 0.625,1.203125 1.21875,1.203125 1.671875,0 2.140625,-3.59375 2.140625,-3.859375 z m 0,0"
           id="path9459" />
      </symbol>
      <symbol
         style="overflow:visible"
         overflow="visible"
         id="textext-ff9d4d69-6">
        <path
           inkscape:connector-curvature="0"
           style="stroke:none"
           d="m 2.375,-2.296875 c 0.3125,0 0.96875,-0.03125 1.453125,-0.21875 0.78125,-0.328125 0.78125,-0.96875 0.78125,-1.046875 0,-0.453125 -0.359375,-0.84375 -1,-0.84375 -1.046875,0 -2.46875,1 -2.46875,2.765625 0,0.90625 0.46875,1.75 1.421875,1.75 1.28125,0 2.109375,-1 2.109375,-1.140625 0,-0.0625 -0.09375,-0.171875 -0.171875,-0.171875 -0.03125,0 -0.046875,0.015625 -0.125,0.109375 -0.734375,0.9375 -1.625,0.984375 -1.796875,0.984375 -0.640625,0 -0.75,-0.703125 -0.75,-1.09375 0,-0.375 0.09375,-0.828125 0.171875,-1.09375 z m -0.328125,-0.21875 c 0.4375,-1.640625 1.46875,-1.671875 1.5625,-1.671875 0.390625,0 0.625,0.265625 0.625,0.609375 0,1.0625 -1.640625,1.0625 -1.96875,1.0625 z m 0,0"
           id="path9462" />
      </symbol>
    </g>
    <g
       id="g8677-5-0">
      <symbol
         id="textext-66ba1f19-0-3-4"
         overflow="visible"
         style="overflow:visible">
        <path
           id="path8680-6-4"
           d=""
           style="stroke:none"
           inkscape:connector-curvature="0" />
      </symbol>
      <symbol
         id="textext-66ba1f19-1-4-6"
         overflow="visible"
         style="overflow:visible">
        <path
           id="path8683-7-5"
           d="m 2.9375,-6.375 c 0,-0.25 0,-0.265625 -0.234375,-0.265625 C 2.078125,-6 1.203125,-6 0.890625,-6 v 0.3125 c 0.203125,0 0.78125,0 1.296875,-0.265625 v 5.171875 c 0,0.359375 -0.03125,0.46875 -0.921875,0.46875 h -0.3125 V 0 c 0.34375,-0.03125 1.203125,-0.03125 1.609375,-0.03125 0.390625,0 1.265625,0 1.609375,0.03125 v -0.3125 h -0.3125 c -0.90625,0 -0.921875,-0.109375 -0.921875,-0.46875 z m 0,0"
           style="stroke:none"
           inkscape:connector-curvature="0" />
      </symbol>
      <symbol
         id="textext-66ba1f19-2-0-2"
         overflow="visible"
         style="overflow:visible">
        <path
           id="path8686-9-6"
           d=""
           style="stroke:none"
           inkscape:connector-curvature="0" />
      </symbol>
      <symbol
         id="textext-66ba1f19-3-4-1"
         overflow="visible"
         style="overflow:visible">
        <path
           id="path8689-8-0"
           d="m 3,-2.625 c -0.171875,0.046875 -0.296875,0.1875 -0.296875,0.328125 0,0.171875 0.140625,0.234375 0.234375,0.234375 0.078125,0 0.34375,-0.046875 0.34375,-0.40625 0,-0.453125 -0.5,-0.609375 -0.9375,-0.609375 -1.078125,0 -1.28125,0.8125 -1.28125,1.015625 0,0.265625 0.15625,0.4375 0.25,0.515625 0.171875,0.140625 0.296875,0.171875 0.78125,0.25 0.15625,0.03125 0.59375,0.109375 0.59375,0.453125 0,0.125 -0.078125,0.390625 -0.359375,0.5625 C 2.046875,-0.125 1.703125,-0.125 1.625,-0.125 1.34375,-0.125 0.953125,-0.1875 0.78125,-0.421875 1.015625,-0.453125 1.171875,-0.625 1.171875,-0.8125 c 0,-0.171875 -0.125,-0.265625 -0.265625,-0.265625 -0.203125,0 -0.40625,0.171875 -0.40625,0.46875 0,0.421875 0.4375,0.671875 1.109375,0.671875 1.296875,0 1.53125,-0.875 1.53125,-1.140625 0,-0.640625 -0.703125,-0.765625 -0.96875,-0.8125 -0.0625,-0.015625 -0.234375,-0.046875 -0.28125,-0.0625 -0.25,-0.046875 -0.375,-0.1875 -0.375,-0.34375 0,-0.15625 0.125,-0.34375 0.28125,-0.453125 0.1875,-0.109375 0.421875,-0.125 0.546875,-0.125 0.140625,0 0.5,0.015625 0.65625,0.25 z m 0,0"
           style="stroke:none"
           inkscape:connector-curvature="0" />
      </symbol>
      <symbol
         id="textext-66ba1f19-4-5-6"
         overflow="visible"
         style="overflow:visible">
        <path
           id="path8692-5-6"
           d="m 1.71875,-2.75 h 0.703125 c 0.140625,0 0.21875,0 0.21875,-0.15625 C 2.640625,-3 2.5625,-3 2.4375,-3 H 1.78125 l 0.25,-1.03125 C 2.046875,-4.0625 2.0625,-4.109375 2.0625,-4.125 c 0,-0.140625 -0.109375,-0.234375 -0.25,-0.234375 -0.171875,0 -0.265625,0.125 -0.328125,0.296875 C 1.4375,-3.875 1.53125,-4.21875 1.21875,-3 H 0.515625 c -0.125,0 -0.21875,0 -0.21875,0.15625 C 0.296875,-2.75 0.375,-2.75 0.5,-2.75 H 1.15625 L 0.75,-1.109375 C 0.703125,-0.9375 0.640625,-0.6875 0.640625,-0.59375 c 0,0.40625 0.359375,0.65625 0.75,0.65625 0.78125,0 1.21875,-0.96875 1.21875,-1.0625 0,-0.09375 -0.09375,-0.09375 -0.109375,-0.09375 -0.09375,0 -0.09375,0.015625 -0.15625,0.140625 -0.1875,0.4375 -0.546875,0.828125 -0.921875,0.828125 -0.15625,0 -0.25,-0.09375 -0.25,-0.34375 0,-0.0625 0.03125,-0.21875 0.046875,-0.28125 z m 0,0"
           style="stroke:none"
           inkscape:connector-curvature="0" />
      </symbol>
    </g>
    <filter
       inkscape:collect="always"
       style="color-interpolation-filters:sRGB"
       id="filter2175"
       x="-0.18193901"
       width="1.363878"
       y="-0.1781019"
       height="1.3562038">
      <feGaussianBlur
         inkscape:collect="always"
         stdDeviation="3.8317121"
         id="feGaussianBlur2177" />
    </filter>
    <clipPath
       clipPathUnits="userSpaceOnUse"
       id="clipPath2195">
      <rect
         style="opacity:1;fill:#ff0eff;fill-opacity:1;fill-rule:nonzero;stroke:none;stroke-width:1.60059357;stroke-linecap:butt;stroke-linejoin:miter;stroke-miterlimit:4;stroke-dasharray:none;stroke-dashoffset:0;stroke-opacity:1"
         id="rect2197"
         width="50.545013"
         height="51.633976"
         x="262.92007"
         y="135.78841" />
    </clipPath>
  </defs>
  <sodipodi:namedview
     id="base"
     pagecolor="#ffffff"
     bordercolor="#666666"
     borderopacity="1.0"
     inkscape:pageopacity="0.0"
     inkscape:pageshadow="2"
     inkscape:zoom="1"
     inkscape:cx="280.38313"
     inkscape:cy="389.79837"
     inkscape:document-units="mm"
     inkscape:current-layer="layer1"
     showgrid="true"
     inkscape:snap-global="true"
     inkscape:window-width="2560"
     inkscape:window-height="1376"
     inkscape:window-x="0"
     inkscape:window-y="27"
     inkscape:window-maximized="1"
     fit-margin-top="0.5"
     fit-margin-left="0.5"
     fit-margin-right="0.5"
     fit-margin-bottom="0.5"
     units="cm"
     inkscape:snap-grids="false"
     inkscape:snap-bbox="true"
     inkscape:snap-bbox-edge-midpoints="false"
     inkscape:object-paths="true"
     inkscape:snap-smooth-nodes="true"
     inkscape:object-nodes="true"
     inkscape:bbox-paths="false"
     showguides="false"
     inkscape:snap-text-baseline="true"
     inkscape:bbox-nodes="true"
     inkscape:snap-to-guides="false">
    <inkscape:grid
       type="xygrid"
       id="grid1366"
       originx="-16.243018"
       originy="-92.711537" />
  </sodipodi:namedview>
  <metadata
     id="metadata5">
    <rdf:RDF>
      <cc:Work
         rdf:about="">
        <dc:format>image/svg+xml</dc:format>
        <dc:type
           rdf:resource="http://purl.org/dc/dcmitype/StillImage" />
        <dc:title />
      </cc:Work>
    </rdf:RDF>
  </metadata>
  <g
     inkscape:label="Coloured_regions"
     inkscape:groupmode="layer"
     id="layer1"
     transform="translate(-16.243017,-72.355366)"
     style="display:inline">
    <g
       transform="matrix(0.66145833,0,0,0.66145833,-156.91114,8.4907019)"
       ns0:text="$m_{u,d}$\n"
       ns0:preamble=""
       id="g1219"
       style="display:inline">
      <defs
         id="defs1203">
        <g
           id="g1201">
          <symbol
             style="overflow:visible"
             overflow="visible"
             id="symbol1179">
            <path
               inkscape:connector-curvature="0"
               style="stroke:none"
               d=""
               id="path1177" />
          </symbol>
          <symbol
             style="overflow:visible"
             overflow="visible"
             id="symbol1183">
            <path
               inkscape:connector-curvature="0"
               style="stroke:none"
               d="m 0.875,-0.59375 c -0.03125,0.15625 -0.09375,0.390625 -0.09375,0.4375 0,0.171875 0.140625,0.265625 0.296875,0.265625 0.125,0 0.296875,-0.078125 0.375,-0.28125 0,-0.015625 0.125,-0.484375 0.1875,-0.734375 l 0.21875,-0.890625 C 1.90625,-2.03125 1.96875,-2.25 2.03125,-2.46875 c 0.03125,-0.171875 0.109375,-0.46875 0.125,-0.5 0.140625,-0.3125 0.671875,-1.21875 1.625,-1.21875 0.453125,0 0.53125,0.375 0.53125,0.703125 0,0.25 -0.0625,0.53125 -0.140625,0.828125 L 3.890625,-1.5 3.6875,-0.75 c -0.03125,0.203125 -0.125,0.546875 -0.125,0.59375 0,0.171875 0.140625,0.265625 0.28125,0.265625 0.3125,0 0.375,-0.25 0.453125,-0.5625 0.140625,-0.5625 0.515625,-2.015625 0.59375,-2.40625 0.03125,-0.125 0.5625,-1.328125 1.65625,-1.328125 0.421875,0 0.53125,0.34375 0.53125,0.703125 0,0.5625 -0.421875,1.703125 -0.625,2.234375 -0.078125,0.234375 -0.125,0.34375 -0.125,0.546875 0,0.46875 0.34375,0.8125 0.8125,0.8125 0.9375,0 1.3125,-1.453125 1.3125,-1.53125 0,-0.109375 -0.09375,-0.109375 -0.125,-0.109375 -0.09375,0 -0.09375,0.03125 -0.140625,0.1875 -0.15625,0.53125 -0.46875,1.234375 -1.015625,1.234375 -0.171875,0 -0.25,-0.09375 -0.25,-0.328125 0,-0.25 0.09375,-0.484375 0.1875,-0.703125 0.1875,-0.53125 0.609375,-1.625 0.609375,-2.203125 0,-0.640625 -0.40625,-1.0625 -1.15625,-1.0625 -0.734375,0 -1.25,0.4375 -1.625,0.96875 0,-0.125 -0.03125,-0.46875 -0.3125,-0.703125 -0.25,-0.21875 -0.5625,-0.265625 -0.8125,-0.265625 -0.90625,0 -1.390625,0.640625 -1.5625,0.875 -0.046875,-0.578125 -0.46875,-0.875 -0.921875,-0.875 -0.453125,0 -0.640625,0.390625 -0.734375,0.5625 -0.171875,0.359375 -0.296875,0.9375 -0.296875,0.96875 0,0.109375 0.09375,0.109375 0.109375,0.109375 0.109375,0 0.109375,-0.015625 0.171875,-0.234375 0.171875,-0.703125 0.375,-1.1875 0.734375,-1.1875 0.15625,0 0.296875,0.078125 0.296875,0.453125 0,0.21875 -0.03125,0.328125 -0.15625,0.84375 z m 0,0"
               id="path1181" />
          </symbol>
          <symbol
             style="overflow:visible"
             overflow="visible"
             id="symbol1187">
            <path
               inkscape:connector-curvature="0"
               style="stroke:none"
               d=""
               id="path1185" />
          </symbol>
          <symbol
             style="overflow:visible"
             overflow="visible"
             id="symbol1191">
            <path
               inkscape:connector-curvature="0"
               style="stroke:none"
               d="M 2.953125,-1.125 C 2.90625,-0.984375 2.84375,-0.71875 2.84375,-0.71875 2.703125,-0.5 2.421875,-0.125 2,-0.125 c -0.484375,0 -0.484375,-0.453125 -0.484375,-0.578125 0,-0.40625 0.1875,-0.90625 0.390625,-1.421875 C 1.953125,-2.265625 2,-2.359375 2,-2.46875 2,-2.84375 1.6875,-3.078125 1.34375,-3.078125 0.640625,-3.078125 0.328125,-2.125 0.328125,-2 c 0,0.078125 0.09375,0.078125 0.125,0.078125 0.09375,0 0.09375,-0.03125 0.125,-0.109375 0.15625,-0.5625 0.46875,-0.84375 0.734375,-0.84375 0.125,0 0.171875,0.078125 0.171875,0.234375 0,0.171875 -0.046875,0.3125 -0.125,0.46875 -0.375,0.96875 -0.375,1.171875 -0.375,1.359375 0,0.109375 0,0.4375 0.265625,0.65625 0.203125,0.171875 0.46875,0.21875 0.71875,0.21875 0.4375,0 0.671875,-0.234375 0.90625,-0.453125 C 3.03125,0.0625 3.484375,0.0625 3.578125,0.0625 3.8125,0.0625 4,-0.0625 4.125,-0.296875 4.28125,-0.578125 4.375,-0.96875 4.375,-1 c 0,-0.09375 -0.09375,-0.09375 -0.109375,-0.09375 -0.109375,0 -0.109375,0.03125 -0.15625,0.21875 -0.09375,0.328125 -0.21875,0.75 -0.515625,0.75 -0.171875,0 -0.234375,-0.15625 -0.234375,-0.34375 0,-0.109375 0.0625,-0.375 0.109375,-0.546875 0.046875,-0.1875 0.125,-0.46875 0.15625,-0.625 l 0.15625,-0.625 C 3.828125,-2.4375 3.90625,-2.75 3.90625,-2.78125 3.90625,-2.921875 3.796875,-3 3.671875,-3 c -0.25,0 -0.3125,0.203125 -0.359375,0.421875 z m 0,0"
               id="path1189" />
          </symbol>
          <symbol
             style="overflow:visible"
             overflow="visible"
             id="symbol1195">
            <path
               inkscape:connector-curvature="0"
               style="stroke:none"
               d="m 1.46875,-0.109375 c 0,0.375 -0.0625,0.828125 -0.546875,1.265625 C 0.90625,1.1875 0.875,1.21875 0.875,1.25 c 0,0.046875 0.0625,0.09375 0.09375,0.09375 0.109375,0 0.703125,-0.5625 0.703125,-1.390625 0,-0.421875 -0.171875,-0.75 -0.5,-0.75 -0.21875,0 -0.390625,0.171875 -0.390625,0.390625 C 0.78125,-0.1875 0.9375,0 1.1875,0 1.359375,0 1.46875,-0.109375 1.46875,-0.109375 Z m 0,0"
               id="path1193" />
          </symbol>
          <symbol
             style="overflow:visible"
             overflow="visible"
             id="symbol1199">
            <path
               inkscape:connector-curvature="0"
               style="stroke:none"
               d="M 3.984375,-4.625 C 3.984375,-4.640625 4,-4.734375 4,-4.734375 4,-4.78125 3.984375,-4.84375 3.890625,-4.84375 3.75,-4.84375 3.171875,-4.78125 3,-4.765625 c -0.046875,0 -0.15625,0.015625 -0.15625,0.15625 0,0.09375 0.109375,0.09375 0.1875,0.09375 0.328125,0 0.328125,0.0625 0.328125,0.109375 0,0.046875 0,0.09375 -0.015625,0.15625 L 2.9375,-2.65625 c -0.140625,-0.234375 -0.375,-0.421875 -0.71875,-0.421875 -0.890625,0 -1.796875,0.984375 -1.796875,1.984375 0,0.6875 0.453125,1.15625 1.0625,1.15625 0.375,0 0.703125,-0.203125 0.984375,-0.484375 C 2.59375,0 3,0.0625 3.1875,0.0625 c 0.25,0 0.421875,-0.140625 0.546875,-0.359375 0.15625,-0.28125 0.25,-0.671875 0.25,-0.703125 0,-0.09375 -0.09375,-0.09375 -0.109375,-0.09375 -0.109375,0 -0.109375,0.03125 -0.15625,0.21875 C 3.625,-0.53125 3.5,-0.125 3.203125,-0.125 3.03125,-0.125 2.96875,-0.28125 2.96875,-0.46875 c 0,-0.125 0.015625,-0.1875 0.046875,-0.28125 z M 2.5,-0.875 C 2.453125,-0.671875 2.296875,-0.53125 2.140625,-0.40625 2.078125,-0.34375 1.796875,-0.125 1.5,-0.125 c -0.265625,0 -0.515625,-0.1875 -0.515625,-0.671875 0,-0.375 0.203125,-1.140625 0.375,-1.421875 0.3125,-0.5625 0.671875,-0.65625 0.859375,-0.65625 0.484375,0 0.625,0.53125 0.625,0.609375 0,0.015625 -0.015625,0.078125 -0.015625,0.09375 z m 0,0"
               id="path1197" />
          </symbol>
        </g>
      </defs>
    </g>
    <path
       transform="translate(16.243017,72.355366)"
       sodipodi:nodetypes="cccccc"
       inkscape:connector-curvature="0"
       id="path2312"
       d="M 128.70451,120.64365 V 6.3436467 l -36.773247,-2.9e-6 C 87.074047,14.525309 74.883072,32.939543 67.338481,47.356397 59.53884,62.260636 51.220695,77.74501 44.977019,89.817852 l 0.358709,30.825798"
       style="display:inline;fill:#d4ffff;fill-opacity:1;fill-rule:evenodd;stroke:none;stroke-width:1;stroke-linecap:butt;stroke-linejoin:miter;stroke-miterlimit:4;stroke-dasharray:none;stroke-opacity:1" />
    <path
       transform="translate(16.243017,72.355366)"
       sodipodi:nodetypes="caccc"
       inkscape:connector-curvature="0"
       id="path1649"
       d="M 44.977019,89.817852 C 52.194015,76.123258 59.495306,61.298227 67.338481,47.356397 75.154092,33.463565 87.314475,14.138632 91.931263,6.3436438 l -77.526759,1e-6 V 90.037924"
       style="display:inline;fill:#ffff96;fill-opacity:1;fill-rule:evenodd;stroke:none;stroke-width:0.59154958;stroke-linecap:butt;stroke-linejoin:miter;stroke-miterlimit:4;stroke-dasharray:none;stroke-opacity:1" />
    <path
       transform="translate(16.243017,72.355366)"
       style="display:inline;fill:none;fill-rule:evenodd;stroke:#0066ff;stroke-width:0.95599997;stroke-linecap:round;stroke-linejoin:miter;stroke-miterlimit:4;stroke-dasharray:none;stroke-opacity:1"
       d="M 91.926076,6.7495032 C 87.193348,14.318125 75.126494,33.58206 67.338481,47.356397 59.465327,61.28132 52.540718,75.356505 44.977019,89.817852"
       id="path1370"
       inkscape:connector-curvature="0"
       sodipodi:nodetypes="cac" />
  </g>
  <g
     inkscape:groupmode="layer"
     id="layer4"
     inkscape:label="Blur"
     style="display:inline">
    <rect
       y="144.98451"
       x="253.72397"
       height="51.633976"
       width="50.545013"
       id="rect2097"
       style="display:inline;opacity:1;fill:#ffffff;fill-opacity:1;fill-rule:nonzero;stroke:none;stroke-width:1.60059357;stroke-linecap:butt;stroke-linejoin:miter;stroke-miterlimit:4;stroke-dasharray:none;stroke-dashoffset:0;stroke-opacity:1;filter:url(#filter2175)"
       clip-path="url(#clipPath2195)"
       transform="matrix(0.9555059,0,0,0.9555059,-236.81718,-58.439547)" />
  </g>
  <g
     inkscape:groupmode="layer"
     id="layer3"
     inkscape:label="Square"
     style="display:inline">
    <rect
       ry="0"
       y="6.3436465"
       x="14.404503"
       height="114.3"
       width="114.3"
       id="rect5598"
       style="display:inline;fill:none;fill-opacity:1;stroke:#000000;stroke-width:0.30000001;stroke-miterlimit:4;stroke-dasharray:none;stroke-opacity:1" />
  </g>
  <g
     inkscape:groupmode="layer"
     id="layer2"
     inkscape:label="Text"
     style="display:inline">
    <g
       style="display:inline"
       id="g5179"
       ns0:preamble=""
       ns0:text="$m_{u,d}$\n"
       transform="matrix(0.63202734,0,0,0.63202734,-27.858928,40.931475)">
      <defs
         id="defs5181">
        <g
           id="g984">
          <symbol
             id="symbol962"
             overflow="visible"
             style="overflow:visible">
            <path
               id="path960"
               d=""
               style="stroke:none"
               inkscape:connector-curvature="0" />
          </symbol>
          <symbol
             id="symbol966"
             overflow="visible"
             style="overflow:visible">
            <path
               id="path964"
               d="m 0.875,-0.59375 c -0.03125,0.15625 -0.09375,0.390625 -0.09375,0.4375 0,0.171875 0.140625,0.265625 0.296875,0.265625 0.125,0 0.296875,-0.078125 0.375,-0.28125 0,-0.015625 0.125,-0.484375 0.1875,-0.734375 l 0.21875,-0.890625 C 1.90625,-2.03125 1.96875,-2.25 2.03125,-2.46875 c 0.03125,-0.171875 0.109375,-0.46875 0.125,-0.5 0.140625,-0.3125 0.671875,-1.21875 1.625,-1.21875 0.453125,0 0.53125,0.375 0.53125,0.703125 0,0.25 -0.0625,0.53125 -0.140625,0.828125 L 3.890625,-1.5 3.6875,-0.75 c -0.03125,0.203125 -0.125,0.546875 -0.125,0.59375 0,0.171875 0.140625,0.265625 0.28125,0.265625 0.3125,0 0.375,-0.25 0.453125,-0.5625 0.140625,-0.5625 0.515625,-2.015625 0.59375,-2.40625 0.03125,-0.125 0.5625,-1.328125 1.65625,-1.328125 0.421875,0 0.53125,0.34375 0.53125,0.703125 0,0.5625 -0.421875,1.703125 -0.625,2.234375 -0.078125,0.234375 -0.125,0.34375 -0.125,0.546875 0,0.46875 0.34375,0.8125 0.8125,0.8125 0.9375,0 1.3125,-1.453125 1.3125,-1.53125 0,-0.109375 -0.09375,-0.109375 -0.125,-0.109375 -0.09375,0 -0.09375,0.03125 -0.140625,0.1875 -0.15625,0.53125 -0.46875,1.234375 -1.015625,1.234375 -0.171875,0 -0.25,-0.09375 -0.25,-0.328125 0,-0.25 0.09375,-0.484375 0.1875,-0.703125 0.1875,-0.53125 0.609375,-1.625 0.609375,-2.203125 0,-0.640625 -0.40625,-1.0625 -1.15625,-1.0625 -0.734375,0 -1.25,0.4375 -1.625,0.96875 0,-0.125 -0.03125,-0.46875 -0.3125,-0.703125 -0.25,-0.21875 -0.5625,-0.265625 -0.8125,-0.265625 -0.90625,0 -1.390625,0.640625 -1.5625,0.875 -0.046875,-0.578125 -0.46875,-0.875 -0.921875,-0.875 -0.453125,0 -0.640625,0.390625 -0.734375,0.5625 -0.171875,0.359375 -0.296875,0.9375 -0.296875,0.96875 0,0.109375 0.09375,0.109375 0.109375,0.109375 0.109375,0 0.109375,-0.015625 0.171875,-0.234375 0.171875,-0.703125 0.375,-1.1875 0.734375,-1.1875 0.15625,0 0.296875,0.078125 0.296875,0.453125 0,0.21875 -0.03125,0.328125 -0.15625,0.84375 z m 0,0"
               style="stroke:none"
               inkscape:connector-curvature="0" />
          </symbol>
          <symbol
             id="symbol970"
             overflow="visible"
             style="overflow:visible">
            <path
               id="path968"
               d=""
               style="stroke:none"
               inkscape:connector-curvature="0" />
          </symbol>
          <symbol
             id="symbol974"
             overflow="visible"
             style="overflow:visible">
            <path
               id="path972"
               d="M 2.953125,-1.125 C 2.90625,-0.984375 2.84375,-0.71875 2.84375,-0.71875 2.703125,-0.5 2.421875,-0.125 2,-0.125 c -0.484375,0 -0.484375,-0.453125 -0.484375,-0.578125 0,-0.40625 0.1875,-0.90625 0.390625,-1.421875 C 1.953125,-2.265625 2,-2.359375 2,-2.46875 2,-2.84375 1.6875,-3.078125 1.34375,-3.078125 0.640625,-3.078125 0.328125,-2.125 0.328125,-2 c 0,0.078125 0.09375,0.078125 0.125,0.078125 0.09375,0 0.09375,-0.03125 0.125,-0.109375 0.15625,-0.5625 0.46875,-0.84375 0.734375,-0.84375 0.125,0 0.171875,0.078125 0.171875,0.234375 0,0.171875 -0.046875,0.3125 -0.125,0.46875 -0.375,0.96875 -0.375,1.171875 -0.375,1.359375 0,0.109375 0,0.4375 0.265625,0.65625 0.203125,0.171875 0.46875,0.21875 0.71875,0.21875 0.4375,0 0.671875,-0.234375 0.90625,-0.453125 C 3.03125,0.0625 3.484375,0.0625 3.578125,0.0625 3.8125,0.0625 4,-0.0625 4.125,-0.296875 4.28125,-0.578125 4.375,-0.96875 4.375,-1 c 0,-0.09375 -0.09375,-0.09375 -0.109375,-0.09375 -0.109375,0 -0.109375,0.03125 -0.15625,0.21875 -0.09375,0.328125 -0.21875,0.75 -0.515625,0.75 -0.171875,0 -0.234375,-0.15625 -0.234375,-0.34375 0,-0.109375 0.0625,-0.375 0.109375,-0.546875 0.046875,-0.1875 0.125,-0.46875 0.15625,-0.625 l 0.15625,-0.625 C 3.828125,-2.4375 3.90625,-2.75 3.90625,-2.78125 3.90625,-2.921875 3.796875,-3 3.671875,-3 c -0.25,0 -0.3125,0.203125 -0.359375,0.421875 z m 0,0"
               style="stroke:none"
               inkscape:connector-curvature="0" />
          </symbol>
          <symbol
             id="symbol978"
             overflow="visible"
             style="overflow:visible">
            <path
               id="path976"
               d="m 1.46875,-0.109375 c 0,0.375 -0.0625,0.828125 -0.546875,1.265625 C 0.90625,1.1875 0.875,1.21875 0.875,1.25 c 0,0.046875 0.0625,0.09375 0.09375,0.09375 0.109375,0 0.703125,-0.5625 0.703125,-1.390625 0,-0.421875 -0.171875,-0.75 -0.5,-0.75 -0.21875,0 -0.390625,0.171875 -0.390625,0.390625 C 0.78125,-0.1875 0.9375,0 1.1875,0 1.359375,0 1.46875,-0.109375 1.46875,-0.109375 Z m 0,0"
               style="stroke:none"
               inkscape:connector-curvature="0" />
          </symbol>
          <symbol
             id="symbol982"
             overflow="visible"
             style="overflow:visible">
            <path
               id="path980"
               d="M 3.984375,-4.625 C 3.984375,-4.640625 4,-4.734375 4,-4.734375 4,-4.78125 3.984375,-4.84375 3.890625,-4.84375 3.75,-4.84375 3.171875,-4.78125 3,-4.765625 c -0.046875,0 -0.15625,0.015625 -0.15625,0.15625 0,0.09375 0.109375,0.09375 0.1875,0.09375 0.328125,0 0.328125,0.0625 0.328125,0.109375 0,0.046875 0,0.09375 -0.015625,0.15625 L 2.9375,-2.65625 c -0.140625,-0.234375 -0.375,-0.421875 -0.71875,-0.421875 -0.890625,0 -1.796875,0.984375 -1.796875,1.984375 0,0.6875 0.453125,1.15625 1.0625,1.15625 0.375,0 0.703125,-0.203125 0.984375,-0.484375 C 2.59375,0 3,0.0625 3.1875,0.0625 c 0.25,0 0.421875,-0.140625 0.546875,-0.359375 0.15625,-0.28125 0.25,-0.671875 0.25,-0.703125 0,-0.09375 -0.09375,-0.09375 -0.109375,-0.09375 -0.109375,0 -0.109375,0.03125 -0.15625,0.21875 C 3.625,-0.53125 3.5,-0.125 3.203125,-0.125 3.03125,-0.125 2.96875,-0.28125 2.96875,-0.46875 c 0,-0.125 0.015625,-0.1875 0.046875,-0.28125 z M 2.5,-0.875 C 2.453125,-0.671875 2.296875,-0.53125 2.140625,-0.40625 2.078125,-0.34375 1.796875,-0.125 1.5,-0.125 c -0.265625,0 -0.515625,-0.1875 -0.515625,-0.671875 0,-0.375 0.203125,-1.140625 0.375,-1.421875 0.3125,-0.5625 0.671875,-0.65625 0.859375,-0.65625 0.484375,0 0.625,0.53125 0.625,0.609375 0,0.015625 -0.015625,0.078125 -0.015625,0.09375 z m 0,0"
               style="stroke:none"
               inkscape:connector-curvature="0" />
          </symbol>
        </g>
      </defs>
      <g
         id="textext-5f6c7f47-6">
        <g
           id="g5204"
           style="fill:#000000;fill-opacity:1">
          <use
             id="use5206"
             y="134.765"
             x="223.43201"
             xlink:href="#textext-5f6c7f47-1"
             width="744.09448"
             height="1052.3622" />
        </g>
        <g
           id="g5208"
           style="fill:#000000;fill-opacity:1">
          <use
             id="use5210"
             y="136.259"
             x="232.179"
             xlink:href="#textext-5f6c7f47-3"
             width="744.09448"
             height="1052.3622" />
          <use
             id="use5212"
             y="136.259"
             x="236.8891"
             xlink:href="#textext-5f6c7f47-4"
             width="744.09448"
             height="1052.3622" />
          <use
             id="use5214"
             y="136.259"
             x="239.25531"
             xlink:href="#textext-5f6c7f47-5"
             width="744.09448"
             height="1052.3622" />
        </g>
      </g>
    </g>
    <g
       ns0:text="$0$"
       ns0:preamble=""
       transform="matrix(0.63202734,0,0,0.63202734,-132.36628,40.681614)"
       style="display:inline"
       id="g6143">
      <defs
         id="defs6145">
        <g
           id="g1038">
          <symbol
             overflow="visible"
             id="symbol1032"
             style="overflow:visible">
            <path
               style="stroke:none"
               d=""
               id="path1030"
               inkscape:connector-curvature="0" />
          </symbol>
          <symbol
             overflow="visible"
             id="symbol1036"
             style="overflow:visible">
            <path
               style="stroke:none"
               d="m 4.578125,-3.1875 c 0,-0.796875 -0.046875,-1.59375 -0.390625,-2.328125 -0.453125,-0.96875 -1.28125,-1.125 -1.6875,-1.125 -0.609375,0 -1.328125,0.265625 -1.75,1.1875 -0.3125,0.6875 -0.359375,1.46875 -0.359375,2.265625 0,0.75 0.03125,1.640625 0.453125,2.40625 0.421875,0.796875 1.15625,1 1.640625,1 0.53125,0 1.296875,-0.203125 1.734375,-1.15625 0.3125,-0.6875 0.359375,-1.46875 0.359375,-2.25 z M 2.484375,0 C 2.09375,0 1.5,-0.25 1.328125,-1.203125 1.21875,-1.796875 1.21875,-2.71875 1.21875,-3.3125 c 0,-0.640625 0,-1.296875 0.078125,-1.828125 0.1875,-1.1875 0.9375,-1.28125 1.1875,-1.28125 0.328125,0 0.984375,0.1875 1.171875,1.171875 0.109375,0.5625 0.109375,1.3125 0.109375,1.9375 0,0.75 0,1.421875 -0.109375,2.0625 C 3.5,-0.296875 2.9375,0 2.484375,0 Z m 0,0"
               id="path1034"
               inkscape:connector-curvature="0" />
          </symbol>
        </g>
      </defs>
      <g
         id="textext-7008435c-2">
        <g
           style="fill:#000000;fill-opacity:1"
           id="g6156">
          <use
             xlink:href="#textext-7008435c-1"
             x="223.43201"
             y="134.765"
             id="use6158"
             width="744.09448"
             height="1052.3622" />
        </g>
      </g>
    </g>
    <g
       style="display:inline"
       transform="matrix(0.75843281,0,0,0.75843281,-87.250359,-9.588863)"
       ns0:text="\\textit{Crossover}"
       ns0:preamble=""
       id="g9437">
      <defs
         id="defs9439">
        <g
           id="g1125">
          <symbol
             style="overflow:visible"
             overflow="visible"
             id="symbol1099">
            <path
               inkscape:connector-curvature="0"
               style="stroke:none"
               d=""
               id="path1097" />
          </symbol>
          <symbol
             style="overflow:visible"
             overflow="visible"
             id="symbol1103">
            <path
               inkscape:connector-curvature="0"
               style="stroke:none"
               d="m 8.078125,-6.78125 c 0,-0.046875 0.015625,-0.109375 0.015625,-0.140625 0,-0.03125 -0.015625,-0.109375 -0.109375,-0.109375 -0.015625,0 -0.0625,0 -0.15625,0.109375 l -0.625,0.734375 C 6.765625,-6.875 6.1875,-7.03125 5.6875,-7.03125 c -2.046875,0 -4.1875,2.25 -4.1875,4.59375 0,1.625 1.0625,2.65625 2.4375,2.65625 1.9375,0 3.03125,-2.125 3.03125,-2.609375 C 6.96875,-2.5 6.875,-2.5 6.8125,-2.5 c -0.046875,0 -0.125,0 -0.15625,0.09375 -0.5,1.671875 -1.75,2.3125 -2.578125,2.3125 -0.84375,0 -1.71875,-0.546875 -1.71875,-1.96875 0,-0.625 0.25,-2.1875 1.046875,-3.28125 0.6875,-0.921875 1.59375,-1.375 2.359375,-1.375 1.0625,0 1.421875,0.953125 1.421875,1.828125 0,0.25 -0.046875,0.578125 -0.046875,0.609375 0,0.09375 0.09375,0.09375 0.140625,0.09375 0.109375,0 0.140625,-0.015625 0.1875,-0.171875 z m 0,0"
               id="path1101" />
          </symbol>
          <symbol
             style="overflow:visible"
             overflow="visible"
             id="symbol1107">
            <path
               inkscape:connector-curvature="0"
               style="stroke:none"
               d="m 2.578125,-2.875 c 0,-0.03125 0.453125,-1.3125 1.3125,-1.3125 0.046875,0 0.328125,0 0.53125,0.140625 C 4.0625,-3.9375 4.03125,-3.625 4.03125,-3.5625 c 0,0.125 0.09375,0.3125 0.359375,0.3125 0.171875,0 0.484375,-0.140625 0.484375,-0.53125 0,-0.515625 -0.640625,-0.625 -0.984375,-0.625 -0.6875,0 -1.046875,0.5 -1.203125,0.71875 -0.109375,-0.53125 -0.5,-0.71875 -0.828125,-0.71875 -0.359375,0 -0.546875,0.234375 -0.71875,0.53125 -0.1875,0.390625 -0.3125,0.984375 -0.3125,1 0,0.109375 0.09375,0.109375 0.15625,0.109375 0.125,0 0.125,-0.015625 0.1875,-0.234375 0.171875,-0.703125 0.359375,-1.1875 0.671875,-1.1875 0.265625,0 0.265625,0.296875 0.265625,0.40625 0,0.15625 -0.03125,0.34375 -0.078125,0.5 l -0.75,2.984375 c -0.015625,0.0625 -0.03125,0.125 -0.03125,0.140625 0,0.109375 0.078125,0.265625 0.28125,0.265625 0.296875,0 0.375,-0.28125 0.390625,-0.375 z m 0,0"
               id="path1105" />
          </symbol>
          <symbol
             style="overflow:visible"
             overflow="visible"
             id="symbol1111">
            <path
               inkscape:connector-curvature="0"
               style="stroke:none"
               d="m 5.078125,-2.765625 c 0,-0.953125 -0.59375,-1.640625 -1.453125,-1.640625 -1.25,0 -2.53125,1.421875 -2.53125,2.875 0,1.015625 0.625,1.640625 1.453125,1.640625 1.234375,0 2.53125,-1.421875 2.53125,-2.875 z m -2.53125,2.65625 c -0.390625,0 -0.75,-0.3125 -0.75,-1.03125 0,-0.5 0.25,-1.59375 0.578125,-2.140625 0.359375,-0.609375 0.84375,-0.90625 1.234375,-0.90625 0.484375,0 0.765625,0.4375 0.765625,1.03125 0,0.421875 -0.21875,1.453125 -0.53125,2.046875 -0.296875,0.546875 -0.796875,1 -1.296875,1 z m 0,0"
               id="path1109" />
          </symbol>
          <symbol
             style="overflow:visible"
             overflow="visible"
             id="symbol1115">
            <path
               inkscape:connector-curvature="0"
               style="stroke:none"
               d="m 2.46875,-1.96875 c 0.4375,0.109375 0.875,0.203125 0.875,0.75 0,0.3125 -0.265625,1.109375 -1.296875,1.109375 -0.21875,0 -0.796875,-0.046875 -0.953125,-0.5625 0.515625,-0.046875 0.515625,-0.46875 0.515625,-0.484375 0,-0.1875 -0.140625,-0.3125 -0.34375,-0.3125 -0.234375,0 -0.515625,0.15625 -0.515625,0.609375 0,0.609375 0.578125,0.96875 1.296875,0.96875 1.484375,0 1.875,-1.21875 1.875,-1.671875 0,-0.875 -0.78125,-1.046875 -1.1875,-1.140625 -0.28125,-0.0625 -0.640625,-0.140625 -0.640625,-0.5625 0,-0.25 0.203125,-0.921875 1,-0.921875 0.28125,0 0.640625,0.09375 0.75,0.484375 -0.3125,0.046875 -0.390625,0.3125 -0.390625,0.40625 0,0.109375 0.0625,0.28125 0.296875,0.28125 0.171875,0 0.421875,-0.109375 0.421875,-0.546875 0,-0.453125 -0.40625,-0.84375 -1.0625,-0.84375 -1.171875,0 -1.578125,0.953125 -1.578125,1.46875 0,0.78125 0.65625,0.90625 0.9375,0.96875 z m 0,0"
               id="path1113" />
          </symbol>
          <symbol
             style="overflow:visible"
             overflow="visible"
             id="symbol1119">
            <path
               inkscape:connector-curvature="0"
               style="stroke:none"
               d="m 4.921875,-3.75 c 0,-0.34375 -0.125,-0.65625 -0.421875,-0.65625 -0.21875,0 -0.46875,0.234375 -0.46875,0.453125 0,0.140625 0.0625,0.203125 0.125,0.28125 0.234375,0.25 0.265625,0.578125 0.265625,0.78125 0,0.28125 -0.46875,2.78125 -1.609375,2.78125 -0.546875,0 -0.65625,-0.5 -0.65625,-0.828125 0,-0.578125 0.328125,-1.4375 0.59375,-2.15625 0.046875,-0.171875 0.109375,-0.3125 0.109375,-0.5 0,-0.5 -0.328125,-0.8125 -0.75,-0.8125 -0.9375,0 -1.28125,1.46875 -1.28125,1.53125 0,0.109375 0.09375,0.109375 0.15625,0.109375 0.125,0 0.125,-0.03125 0.171875,-0.171875 0.078125,-0.296875 0.34375,-1.25 0.921875,-1.25 0.109375,0 0.21875,0.03125 0.21875,0.296875 0,0.234375 -0.09375,0.5 -0.234375,0.890625 -0.3125,0.84375 -0.5,1.4375 -0.5,1.90625 0,0.921875 0.625,1.203125 1.21875,1.203125 1.671875,0 2.140625,-3.59375 2.140625,-3.859375 z m 0,0"
               id="path1117" />
          </symbol>
          <symbol
             style="overflow:visible"
             overflow="visible"
             id="symbol1123">
            <path
               inkscape:connector-curvature="0"
               style="stroke:none"
               d="m 2.375,-2.296875 c 0.3125,0 0.96875,-0.03125 1.453125,-0.21875 0.78125,-0.328125 0.78125,-0.96875 0.78125,-1.046875 0,-0.453125 -0.359375,-0.84375 -1,-0.84375 -1.046875,0 -2.46875,1 -2.46875,2.765625 0,0.90625 0.46875,1.75 1.421875,1.75 1.28125,0 2.109375,-1 2.109375,-1.140625 0,-0.0625 -0.09375,-0.171875 -0.171875,-0.171875 -0.03125,0 -0.046875,0.015625 -0.125,0.109375 -0.734375,0.9375 -1.625,0.984375 -1.796875,0.984375 -0.640625,0 -0.75,-0.703125 -0.75,-1.09375 0,-0.375 0.09375,-0.828125 0.171875,-1.09375 z m -0.328125,-0.21875 c 0.4375,-1.640625 1.46875,-1.671875 1.5625,-1.671875 0.390625,0 0.625,0.265625 0.625,0.609375 0,1.0625 -1.640625,1.0625 -1.96875,1.0625 z m 0,0"
               id="path1121" />
          </symbol>
        </g>
      </defs>
      <g
         id="textext-ff9d4d69-7">
        <g
           style="fill:#000000;fill-opacity:1"
           id="g9465">
          <use
             height="1052.3622"
             width="744.09448"
             xlink:href="#textext-ff9d4d69-1"
             x="223.43201"
             y="134.765"
             id="use9467" />
          <use
             height="1052.3622"
             width="744.09448"
             xlink:href="#textext-ff9d4d69-2"
             x="230.56123"
             y="134.765"
             id="use9469" />
        </g>
        <g
           style="fill:#000000;fill-opacity:1"
           id="g9471">
          <use
             height="1052.3622"
             width="744.09448"
             xlink:href="#textext-ff9d4d69-3"
             x="234.25438"
             y="134.765"
             id="use9473" />
          <use
             height="1052.3622"
             width="744.09448"
             xlink:href="#textext-ff9d4d69-4"
             x="239.34625"
             y="134.765"
             id="use9475" />
          <use
             height="1052.3622"
             width="744.09448"
             xlink:href="#textext-ff9d4d69-4"
             x="243.41997"
             y="134.765"
             id="use9477" />
          <use
             height="1052.3622"
             width="744.09448"
             xlink:href="#textext-ff9d4d69-3"
             x="247.49367"
             y="134.765"
             id="use9479" />
          <use
             height="1052.3622"
             width="744.09448"
             xlink:href="#textext-ff9d4d69-5"
             x="252.58556"
             y="134.765"
             id="use9481" />
          <use
             height="1052.3622"
             width="744.09448"
             xlink:href="#textext-ff9d4d69-6"
             x="257.16837"
             y="134.765"
             id="use9483" />
          <use
             height="1052.3622"
             width="744.09448"
             xlink:href="#textext-ff9d4d69-2"
             x="261.75116"
             y="134.765"
             id="use9485" />
        </g>
      </g>
    </g>
    <g
       id="g1414"
       style="display:inline"
       transform="matrix(0.63202734,0,0,0.63202734,-133.71542,-75.196854)"
       ns0:preamble=""
       ns0:text="$a\n$\n">
      <defs
         id="defs1407">
        <g
           id="g1405">
          <symbol
             id="textext-dc0d4f6c-0"
             overflow="visible"
             style="overflow:visible">
            <path
               id="path1399"
               d=""
               style="stroke:none"
               inkscape:connector-curvature="0" />
          </symbol>
          <symbol
             id="textext-dc0d4f6c-1"
             overflow="visible"
             style="overflow:visible">
            <path
               id="path1402"
               d="M 3.71875,-3.765625 C 3.53125,-4.140625 3.25,-4.40625 2.796875,-4.40625 c -1.15625,0 -2.390625,1.46875 -2.390625,2.921875 0,0.9375 0.546875,1.59375 1.3125,1.59375 0.203125,0 0.703125,-0.046875 1.296875,-0.75 0.078125,0.421875 0.4375,0.75 0.90625,0.75 0.359375,0 0.578125,-0.234375 0.75,-0.546875 0.15625,-0.359375 0.296875,-0.96875 0.296875,-0.984375 0,-0.109375 -0.09375,-0.109375 -0.125,-0.109375 -0.09375,0 -0.109375,0.046875 -0.140625,0.1875 -0.171875,0.640625 -0.34375,1.234375 -0.75,1.234375 -0.28125,0 -0.296875,-0.265625 -0.296875,-0.453125 0,-0.21875 0.015625,-0.3125 0.125,-0.75 C 3.890625,-1.71875 3.90625,-1.828125 4,-2.203125 L 4.359375,-3.59375 c 0.0625,-0.28125 0.0625,-0.296875 0.0625,-0.34375 0,-0.171875 -0.109375,-0.265625 -0.28125,-0.265625 -0.25,0 -0.390625,0.21875 -0.421875,0.4375 z M 3.078125,-1.1875 C 3.015625,-1 3.015625,-0.984375 2.875,-0.8125 2.4375,-0.265625 2.03125,-0.109375 1.75,-0.109375 c -0.5,0 -0.640625,-0.546875 -0.640625,-0.9375 0,-0.5 0.3125,-1.71875 0.546875,-2.1875 0.3125,-0.578125 0.75,-0.953125 1.15625,-0.953125 0.640625,0 0.78125,0.8125 0.78125,0.875 0,0.0625 -0.015625,0.125 -0.03125,0.171875 z m 0,0"
               style="stroke:none"
               inkscape:connector-curvature="0" />
          </symbol>
        </g>
      </defs>
      <g
         id="textext-dc0d4f6c-2">
        <g
           id="g1411"
           style="fill:#000000;fill-opacity:1">
          <use
             id="use1409"
             y="134.765"
             x="223.43201"
             xlink:href="#textext-dc0d4f6c-1"
             width="100%"
             height="100%" />
        </g>
      </g>
    </g>
    <g
       id="g1606"
       ns0:preamble=""
       ns0:text="?\n"
       transform="matrix(1.9110118,0,0,1.9110118,-398.51572,-154.06277)"
       style="fill:#0066ff;fill-opacity:1;stroke:none">
      <defs
         id="defs1599">
        <g
           id="g1597">
          <symbol
             id="textext-5f7569fb-0"
             overflow="visible"
             style="overflow:visible">
            <path
               id="path1591"
               d=""
               style="stroke:none"
               inkscape:connector-curvature="0" />
          </symbol>
          <symbol
             id="textext-5f7569fb-1"
             overflow="visible"
             style="overflow:visible">
            <path
               id="path1594"
               d="m 2.34375,-2.484375 c 0,-1.25 0.96875,-1.96875 1.3125,-2.21875 0.265625,-0.203125 0.484375,-0.5625 0.484375,-0.984375 0,-0.578125 -0.40625,-1.34375 -1.890625,-1.34375 -1.078125,0 -1.6875,0.6875 -1.6875,1.328125 0,0.34375 0.21875,0.484375 0.453125,0.484375 0.28125,0 0.453125,-0.203125 0.453125,-0.46875 0,-0.4375 -0.40625,-0.4375 -0.546875,-0.4375 0.296875,-0.53125 0.875,-0.6875 1.296875,-0.6875 1.09375,0 1.09375,0.6875 1.09375,1.078125 0,0.578125 -0.15625,0.765625 -0.34375,0.9375 -0.65625,0.71875 -0.875,1.640625 -0.875,2.25 v 0.4375 c 0,0.1875 0,0.25 0.125,0.25 0.125,0 0.125,-0.09375 0.125,-0.28125 z M 2.734375,-0.53125 C 2.734375,-0.8125 2.5,-1.0625 2.21875,-1.0625 c -0.296875,0 -0.53125,0.25 -0.53125,0.53125 C 1.6875,-0.234375 1.921875,0 2.21875,0 2.5,0 2.734375,-0.234375 2.734375,-0.53125 Z m 0,0"
               style="stroke:none"
               inkscape:connector-curvature="0" />
          </symbol>
        </g>
      </defs>
      <g
         id="textext-5f7569fb-2"
         style="fill:#0066ff;fill-opacity:1;stroke:none">
        <g
           id="g1603"
           style="fill:#0066ff;fill-opacity:1;stroke:none">
          <use
             id="use1601"
             y="134.765"
             x="223.43201"
             xlink:href="#textext-5f7569fb-1"
             width="100%"
             height="100%"
             style="fill:#0066ff;fill-opacity:1;stroke:none" />
        </g>
      </g>
    </g>
    <g
       style="display:inline;fill:#ff5000;fill-opacity:1"
       id="g8673-5-3"
       ns0:preamble=""
       ns0:text="$1^{st}$"
       transform="matrix(0.60649986,0,0,0.60649986,-94.607044,-48.651493)">
      <defs
         id="defs8675-4-5">
        <g
           id="g2057">
          <symbol
             id="symbol2039"
             overflow="visible"
             style="overflow:visible">
            <path
               id="path2037"
               d=""
               style="stroke:none"
               inkscape:connector-curvature="0" />
          </symbol>
          <symbol
             id="symbol2043"
             overflow="visible"
             style="overflow:visible">
            <path
               id="path2041"
               d="m 2.9375,-6.375 c 0,-0.25 0,-0.265625 -0.234375,-0.265625 C 2.078125,-6 1.203125,-6 0.890625,-6 v 0.3125 c 0.203125,0 0.78125,0 1.296875,-0.265625 v 5.171875 c 0,0.359375 -0.03125,0.46875 -0.921875,0.46875 h -0.3125 V 0 c 0.34375,-0.03125 1.203125,-0.03125 1.609375,-0.03125 0.390625,0 1.265625,0 1.609375,0.03125 v -0.3125 h -0.3125 c -0.90625,0 -0.921875,-0.109375 -0.921875,-0.46875 z m 0,0"
               style="stroke:none"
               inkscape:connector-curvature="0" />
          </symbol>
          <symbol
             id="symbol2047"
             overflow="visible"
             style="overflow:visible">
            <path
               id="path2045"
               d=""
               style="stroke:none"
               inkscape:connector-curvature="0" />
          </symbol>
          <symbol
             id="symbol2051"
             overflow="visible"
             style="overflow:visible">
            <path
               id="path2049"
               d="m 3,-2.625 c -0.171875,0.046875 -0.296875,0.1875 -0.296875,0.328125 0,0.171875 0.140625,0.234375 0.234375,0.234375 0.078125,0 0.34375,-0.046875 0.34375,-0.40625 0,-0.453125 -0.5,-0.609375 -0.9375,-0.609375 -1.078125,0 -1.28125,0.8125 -1.28125,1.015625 0,0.265625 0.15625,0.4375 0.25,0.515625 0.171875,0.140625 0.296875,0.171875 0.78125,0.25 0.15625,0.03125 0.59375,0.109375 0.59375,0.453125 0,0.125 -0.078125,0.390625 -0.359375,0.5625 C 2.046875,-0.125 1.703125,-0.125 1.625,-0.125 1.34375,-0.125 0.953125,-0.1875 0.78125,-0.421875 1.015625,-0.453125 1.171875,-0.625 1.171875,-0.8125 c 0,-0.171875 -0.125,-0.265625 -0.265625,-0.265625 -0.203125,0 -0.40625,0.171875 -0.40625,0.46875 0,0.421875 0.4375,0.671875 1.109375,0.671875 1.296875,0 1.53125,-0.875 1.53125,-1.140625 0,-0.640625 -0.703125,-0.765625 -0.96875,-0.8125 -0.0625,-0.015625 -0.234375,-0.046875 -0.28125,-0.0625 -0.25,-0.046875 -0.375,-0.1875 -0.375,-0.34375 0,-0.15625 0.125,-0.34375 0.28125,-0.453125 0.1875,-0.109375 0.421875,-0.125 0.546875,-0.125 0.140625,0 0.5,0.015625 0.65625,0.25 z m 0,0"
               style="stroke:none"
               inkscape:connector-curvature="0" />
          </symbol>
          <symbol
             id="symbol2055"
             overflow="visible"
             style="overflow:visible">
            <path
               id="path2053"
               d="m 1.71875,-2.75 h 0.703125 c 0.140625,0 0.21875,0 0.21875,-0.15625 C 2.640625,-3 2.5625,-3 2.4375,-3 H 1.78125 l 0.25,-1.03125 C 2.046875,-4.0625 2.0625,-4.109375 2.0625,-4.125 c 0,-0.140625 -0.109375,-0.234375 -0.25,-0.234375 -0.171875,0 -0.265625,0.125 -0.328125,0.296875 C 1.4375,-3.875 1.53125,-4.21875 1.21875,-3 H 0.515625 c -0.125,0 -0.21875,0 -0.21875,0.15625 C 0.296875,-2.75 0.375,-2.75 0.5,-2.75 H 1.15625 L 0.75,-1.109375 C 0.703125,-0.9375 0.640625,-0.6875 0.640625,-0.59375 c 0,0.40625 0.359375,0.65625 0.75,0.65625 0.78125,0 1.21875,-0.96875 1.21875,-1.0625 0,-0.09375 -0.09375,-0.09375 -0.109375,-0.09375 -0.09375,0 -0.09375,0.015625 -0.15625,0.140625 -0.1875,0.4375 -0.546875,0.828125 -0.921875,0.828125 -0.15625,0 -0.25,-0.09375 -0.25,-0.34375 0,-0.0625 0.03125,-0.21875 0.046875,-0.28125 z m 0,0"
               style="stroke:none"
               inkscape:connector-curvature="0" />
          </symbol>
        </g>
      </defs>
      <g
         id="textext-66ba1f19-5-5-4"
         style="fill:#ff5000;fill-opacity:1">
        <g
           id="g8695-5-1"
           style="fill:#ff5000;fill-opacity:1">
          <use
             id="use8697-1-9"
             y="134.765"
             x="223.43201"
             xlink:href="#textext-66ba1f19-1-4-6"
             width="744.09448"
             height="1052.3622"
             style="fill:#ff5000;fill-opacity:1" />
        </g>
        <g
           id="g8699-0-2"
           style="fill:#ff5000;fill-opacity:1">
          <use
             id="use8701-1-7"
             y="131.14999"
             x="228.41299"
             xlink:href="#textext-66ba1f19-3-4-1"
             width="744.09448"
             height="1052.3622"
             style="fill:#ff5000;fill-opacity:1" />
          <use
             id="use8703-3-7"
             y="131.14999"
             x="232.17328"
             xlink:href="#textext-66ba1f19-4-5-6"
             width="744.09448"
             height="1052.3622"
             style="fill:#ff5000;fill-opacity:1" />
        </g>
      </g>
    </g>
  </g>
</svg>
