<?xml version="1.0" encoding="UTF-8" standalone="no"?>
<!-- Created with Inkscape (http://www.inkscape.org/) -->

<svg
   xmlns:ns0="http://www.iki.fi/pav/software/textext/"
   xmlns:osb="http://www.openswatchbook.org/uri/2009/osb"
   xmlns:dc="http://purl.org/dc/elements/1.1/"
   xmlns:cc="http://creativecommons.org/ns#"
   xmlns:rdf="http://www.w3.org/1999/02/22-rdf-syntax-ns#"
   xmlns:svg="http://www.w3.org/2000/svg"
   xmlns="http://www.w3.org/2000/svg"
   xmlns:xlink="http://www.w3.org/1999/xlink"
   xmlns:sodipodi="http://sodipodi.sourceforge.net/DTD/sodipodi-0.dtd"
   xmlns:inkscape="http://www.inkscape.org/namespaces/inkscape"
   sodipodi:docname="QCD_Nf2+1.svg"
   inkscape:version="0.91 r13725"
   version="1.1"
   id="svg2"
   height="1052.3622047"
   width="744.09448819">
  <sodipodi:namedview
     id="base"
     pagecolor="#ffffff"
     bordercolor="#666666"
     borderopacity="1.0"
     inkscape:pageopacity="0.0"
     inkscape:pageshadow="2"
     inkscape:zoom="2"
     inkscape:cx="268.87128"
     inkscape:cy="410.6525"
     inkscape:document-units="px"
     inkscape:current-layer="layer6"
     showgrid="true"
     inkscape:snap-global="true"
     inkscape:snap-bbox="false"
     inkscape:snap-midpoints="false"
     inkscape:snap-grids="false"
     inkscape:snap-to-guides="false"
     inkscape:window-width="1920"
     inkscape:window-height="1016"
     inkscape:window-x="0"
     inkscape:window-y="27"
     inkscape:window-maximized="1"
     inkscape:bbox-nodes="true"
     inkscape:snap-bbox-edge-midpoints="true"
     inkscape:object-nodes="true"
     inkscape:object-paths="true"
     inkscape:snap-intersection-paths="true"
     inkscape:snap-object-midpoints="true"
     inkscape:snap-bbox-midpoints="true"
     showguides="false"
     inkscape:snap-nodes="true"
     inkscape:snap-smooth-nodes="true"
     inkscape:bbox-paths="true">
    <inkscape:grid
       id="grid2985"
       type="xygrid" />
  </sodipodi:namedview>
  <defs
     id="defs4">
    <linearGradient
       inkscape:collect="always"
       id="linearGradient5504">
      <stop
         style="stop-color:#ff8000;stop-opacity:1;"
         offset="0"
         id="stop5506" />
      <stop
         style="stop-color:#ff8000;stop-opacity:0;"
         offset="1"
         id="stop5508" />
    </linearGradient>
    <linearGradient
       id="linearGradient4306">
      <stop
         style="stop-color:#a0ffaa;stop-opacity:1;"
         offset="0"
         id="stop4308" />
      <stop
         style="stop-color:#ccffd9;stop-opacity:0;"
         offset="1"
         id="stop4310" />
    </linearGradient>
    <linearGradient
       id="linearGradient4097">
      <stop
         style="stop-color:#eea2a2;stop-opacity:1;"
         offset="0"
         id="stop4099" />
      <stop
         id="stop4115"
         offset="0.77358609"
         style="stop-color:#ffffff;stop-opacity:0.49803922;" />
      <stop
         style="stop-color:#f5fff3;stop-opacity:0;"
         offset="1"
         id="stop4101" />
    </linearGradient>
    <linearGradient
       id="linearGradient4053">
      <stop
         style="stop-color:#83e5c7;stop-opacity:1;"
         offset="0"
         id="stop4055" />
      <stop
         id="stop4117"
         offset="0.31205675"
         style="stop-color:#6ee1be;stop-opacity:0.74901961;" />
      <stop
         style="stop-color:#6ee1be;stop-opacity:0;"
         offset="1"
         id="stop4057" />
    </linearGradient>
    <linearGradient
       id="linearGradient4039">
      <stop
         style="stop-color:#0000ff;stop-opacity:1;"
         offset="0"
         id="stop4041" />
      <stop
         id="stop4049"
         offset="0.75512576"
         style="stop-color:#ef00ff;stop-opacity:0.49803922;" />
      <stop
         style="stop-color:#0000ff;stop-opacity:0;"
         offset="1"
         id="stop4043" />
    </linearGradient>
    <linearGradient
       id="linearGradient6614">
      <stop
         style="stop-color:#ffffff;stop-opacity:1;"
         offset="0"
         id="stop6616" />
      <stop
         style="stop-color:#ffffff;stop-opacity:0;"
         offset="1"
         id="stop6618" />
    </linearGradient>
    <linearGradient
       id="linearGradient6586">
      <stop
         id="stop6588"
         offset="0"
         style="stop-color:#000000;stop-opacity:1;" />
      <stop
         id="stop6590"
         offset="1"
         style="stop-color:#ffffff;stop-opacity:0;" />
    </linearGradient>
    <linearGradient
       osb:paint="gradient"
       id="linearGradient6548">
      <stop
         style="stop-color:#e05de0;stop-opacity:0.49803922;"
         offset="0"
         id="stop6582" />
      <stop
         id="stop6552"
         offset="1"
         style="stop-color:#ffea26;stop-opacity:0;" />
    </linearGradient>
    <linearGradient
       osb:paint="gradient"
       id="linearGradient6452">
      <stop
         id="stop6454"
         offset="0"
         style="stop-color:#dcb3d6;stop-opacity:1;" />
      <stop
         id="stop6456"
         offset="1"
         style="stop-color:#dc7ed6;stop-opacity:1" />
    </linearGradient>
    <inkscape:path-effect
       effect="spiro"
       id="path-effect4488"
       is_visible="true" />
    <inkscape:path-effect
       effect="spiro"
       id="path-effect4436"
       is_visible="true" />
    <inkscape:path-effect
       effect="spiro"
       id="path-effect10298"
       is_visible="true" />
    <inkscape:path-effect
       effect="spiro"
       id="path-effect10294"
       is_visible="true" />
    <inkscape:path-effect
       effect="spiro"
       id="path-effect10290"
       is_visible="true" />
    <inkscape:path-effect
       effect="spiro"
       id="path-effect10286"
       is_visible="true" />
    <marker
       style="overflow:visible;"
       id="Arrow1Send"
       refX="0.0"
       refY="0.0"
       orient="auto"
       inkscape:stockid="Arrow1Send">
      <path
         transform="scale(0.2) rotate(180) translate(6,0)"
         style="fill-rule:evenodd;stroke:#000000;stroke-width:1.0pt;"
         d="M 0.0,0.0 L 5.0,-5.0 L -12.5,0.0 L 5.0,5.0 L 0.0,0.0 z "
         id="path4533" />
    </marker>
    <inkscape:path-effect
       effect="spiro"
       id="path-effect9258"
       is_visible="true" />
    <inkscape:path-effect
       effect="spiro"
       id="path-effect9254"
       is_visible="true" />
    <inkscape:path-effect
       is_visible="true"
       id="path-effect9248"
       effect="spiro" />
    <inkscape:path-effect
       is_visible="true"
       id="path-effect9202"
       effect="spiro" />
    <inkscape:path-effect
       effect="spiro"
       id="path-effect7766"
       is_visible="true" />
    <inkscape:path-effect
       effect="spiro"
       id="path-effect7762"
       is_visible="true" />
    <inkscape:path-effect
       effect="spiro"
       id="path-effect7728"
       is_visible="true" />
    <inkscape:path-effect
       effect="spiro"
       id="path-effect5362"
       is_visible="true" />
    <inkscape:path-effect
       effect="spiro"
       id="path-effect5358"
       is_visible="true" />
    <inkscape:path-effect
       effect="spiro"
       id="path-effect5354"
       is_visible="true" />
    <marker
       inkscape:stockid="Arrow1Lend"
       orient="auto"
       refY="0.0"
       refX="0.0"
       id="Arrow1Lend"
       style="overflow:visible;">
      <path
         id="path4521"
         d="M 0.0,0.0 L 5.0,-5.0 L -12.5,0.0 L 5.0,5.0 L 0.0,0.0 z "
         style="fill-rule:evenodd;stroke:#000000;stroke-width:1.0pt;"
         transform="scale(0.8) rotate(180) translate(12.5,0)" />
    </marker>
    <marker
       inkscape:stockid="Arrow1Mend"
       orient="auto"
       refY="0.0"
       refX="0.0"
       id="Arrow1Mend"
       style="overflow:visible;">
      <path
         id="path4527"
         d="M 0.0,0.0 L 5.0,-5.0 L -12.5,0.0 L 5.0,5.0 L 0.0,0.0 z "
         style="fill-rule:evenodd;stroke:#000000;stroke-width:1.0pt;"
         transform="scale(0.4) rotate(180) translate(10,0)" />
    </marker>
    <inkscape:path-effect
       effect="spiro"
       id="path-effect4512"
       is_visible="true" />
    <inkscape:path-effect
       effect="spiro"
       id="path-effect4508"
       is_visible="true" />
    <inkscape:path-effect
       effect="spiro"
       id="path-effect5536"
       is_visible="true" />
    <marker
       style="overflow:visible"
       id="DotS"
       refX="0.0"
       refY="0.0"
       orient="auto"
       inkscape:stockid="DotS">
      <path
         transform="scale(0.2) translate(7.4, 1)"
         style="fill-rule:evenodd;stroke:#000000;stroke-width:1.0pt"
         d="M -2.5,-1.0 C -2.5,1.7600000 -4.7400000,4.0 -7.5,4.0 C -10.260000,4.0 -12.5,1.7600000 -12.5,-1.0 C -12.5,-3.7600000 -10.260000,-6.0 -7.5,-6.0 C -4.7400000,-6.0 -2.5,-3.7600000 -2.5,-1.0 z "
         id="path3887" />
    </marker>
    <marker
       style="overflow:visible"
       id="DotM"
       refX="0.0"
       refY="0.0"
       orient="auto"
       inkscape:stockid="DotM">
      <path
         transform="scale(0.4) translate(7.4, 1)"
         style="fill-rule:evenodd;stroke:#000000;stroke-width:1.0pt"
         d="M -2.5,-1.0 C -2.5,1.7600000 -4.7400000,4.0 -7.5,4.0 C -10.260000,4.0 -12.5,1.7600000 -12.5,-1.0 C -12.5,-3.7600000 -10.260000,-6.0 -7.5,-6.0 C -4.7400000,-6.0 -2.5,-3.7600000 -2.5,-1.0 z "
         id="path3884" />
    </marker>
    <marker
       style="overflow:visible"
       id="DotL"
       refX="0.0"
       refY="0.0"
       orient="auto"
       inkscape:stockid="DotL">
      <path
         transform="scale(0.8) translate(7.4, 1)"
         style="fill-rule:evenodd;stroke:#000000;stroke-width:1.0pt"
         d="M -2.5,-1.0 C -2.5,1.7600000 -4.7400000,4.0 -7.5,4.0 C -10.260000,4.0 -12.5,1.7600000 -12.5,-1.0 C -12.5,-3.7600000 -10.260000,-6.0 -7.5,-6.0 C -4.7400000,-6.0 -2.5,-3.7600000 -2.5,-1.0 z "
         id="path3881" />
    </marker>
    <inkscape:path-effect
       is_visible="true"
       id="path-effect3812"
       effect="spiro" />
    <marker
       style="overflow:visible"
       id="DotSE"
       refX="0.0"
       refY="0.0"
       orient="auto"
       inkscape:stockid="DotSE">
      <path
         transform="scale(0.2) translate(7.4, 1)"
         style="stroke:#000000;stroke-width:1.0pt;fill:#000000;fill-rule:evenodd"
         d="M -2.5,-1.0 C -2.5,1.7600000 -4.7400000,4.0 -7.5,4.0 C -10.260000,4.0 -12.5,1.7600000 -12.5,-1.0 C -12.5,-3.7600000 -10.260000,-6.0 -7.5,-6.0 C -4.7400000,-6.0 -2.5,-3.7600000 -2.5,-1.0 z "
         id="path4646" />
    </marker>
    <inkscape:path-effect
       effect="spiro"
       id="path-effect7728-3"
       is_visible="true" />
    <inkscape:path-effect
       effect="spiro"
       id="path-effect7728-33"
       is_visible="true" />
    <inkscape:path-effect
       effect="spiro"
       id="path-effect7728-3-3"
       is_visible="true" />
    <marker
       inkscape:stockid="Arrow1MendR"
       orient="auto"
       refY="0.0"
       refX="0.0"
       id="Arrow1MendR"
       style="overflow:visible;">
      <path
         id="path9878"
         d="M 0.0,0.0 L 5.0,-5.0 L -12.5,0.0 L 5.0,5.0 L 0.0,0.0 z "
         style="stroke:#ff6600;stroke-width:1.0pt;fill:#ff6600;fill-rule:evenodd"
         transform="scale(0.4) rotate(180) translate(10,0)" />
    </marker>
    <marker
       inkscape:stockid="Arrow1MendRb"
       orient="auto"
       refY="0.0"
       refX="0.0"
       id="Arrow1MendRb"
       style="overflow:visible;">
      <path
         id="path4198"
         d="M 0.0,0.0 L 5.0,-5.0 L -12.5,0.0 L 5.0,5.0 L 0.0,0.0 z "
         style="fill-rule:evenodd;stroke:#0000ff;stroke-width:1.0pt;fill:#0000ff"
         transform="scale(0.4) rotate(180) translate(10,0)" />
    </marker>
    <marker
       inkscape:stockid="Arrow1MendR4"
       orient="auto"
       refY="0.0"
       refX="0.0"
       id="Arrow1MendR4"
       style="overflow:visible;">
      <path
         id="path4675"
         d="M 0.0,0.0 L 5.0,-5.0 L -12.5,0.0 L 5.0,5.0 L 0.0,0.0 z "
         style="fill-rule:evenodd;stroke:#0000ff;stroke-width:1.0pt;fill:#0000ff"
         transform="scale(0.4) rotate(180) translate(10,0)" />
    </marker>
    <marker
       inkscape:stockid="Arrow1MendRf"
       orient="auto"
       refY="0.0"
       refX="0.0"
       id="Arrow1MendRf"
       style="overflow:visible;">
      <path
         id="path4678"
         d="M 0.0,0.0 L 5.0,-5.0 L -12.5,0.0 L 5.0,5.0 L 0.0,0.0 z "
         style="fill-rule:evenodd;stroke:#0000ff;stroke-width:1.0pt;fill:#0000ff"
         transform="scale(0.4) rotate(180) translate(10,0)" />
    </marker>
    <radialGradient
       gradientUnits="userSpaceOnUse"
       gradientTransform="matrix(2.9811319,9.3457575e-8,-6.2063749e-6,1.509434,-1407.4843,-1811.1587)"
       r="212"
       fy="1658.5825"
       fx="509.70392"
       cy="1658.5825"
       cx="509.70392"
       id="radialGradient6580"
       xlink:href="#linearGradient6548"
       inkscape:collect="always" />
    <linearGradient
       gradientTransform="matrix(1.0188679,0,0,1,-2.113208,0)"
       gradientUnits="userSpaceOnUse"
       y2="572.36218"
       x2="344"
       y1="532.36218"
       x1="344"
       id="linearGradient6620"
       xlink:href="#linearGradient6614"
       inkscape:collect="always" />
    <linearGradient
       gradientTransform="matrix(1.0188679,0,0,1,-2.113208,0)"
       y2="628.36218"
       x2="488.88892"
       y1="628.36218"
       x1="536"
       gradientUnits="userSpaceOnUse"
       id="linearGradient6632"
       xlink:href="#linearGradient6614"
       inkscape:collect="always" />
    <radialGradient
       gradientUnits="userSpaceOnUse"
       gradientTransform="matrix(-0.66666667,1.1378951e-7,7.5656622e-8,-0.85185158,42.666743,1526.8019)"
       r="216"
       fy="1120.4294"
       fx="-739.99976"
       cy="1120.4294"
       cx="-739.99976"
       id="radialGradient6636"
       xlink:href="#linearGradient6614"
       inkscape:collect="always" />
    <radialGradient
       inkscape:collect="always"
       xlink:href="#linearGradient4053"
       id="radialGradient4093"
       gradientUnits="userSpaceOnUse"
       gradientTransform="matrix(2.0010562,2.3318961e-7,-1.0766271e-7,1.2546284,776.69503,-318.67706)"
       cx="-608"
       cy="863.56531"
       fx="-608"
       fy="863.56531"
       r="215.20312" />
    <linearGradient
       inkscape:collect="always"
       xlink:href="#linearGradient4053"
       id="linearGradient4095"
       gradientUnits="userSpaceOnUse"
       gradientTransform="translate(-74.24071,-0.01104854)"
       x1="-511.99448"
       y1="765.27844"
       x2="-511.99448"
       y2="486.75217" />
    <radialGradient
       inkscape:collect="always"
       xlink:href="#linearGradient4097"
       id="radialGradient4113"
       cx="396.22229"
       cy="749.06335"
       fx="396.22229"
       fy="749.06335"
       r="91.663834"
       gradientTransform="matrix(2.630906,0,7.3444855e-6,4.3227962,-683.25673,-2473.311)"
       gradientUnits="userSpaceOnUse" />
    <radialGradient
       inkscape:collect="always"
       xlink:href="#linearGradient4306"
       id="radialGradient5502"
       gradientUnits="userSpaceOnUse"
       gradientTransform="matrix(2.1925758,-0.39665934,0.64922794,3.588675,-1042.2647,-1859.8032)"
       cx="429.53397"
       cy="778.78162"
       fx="429.53397"
       fy="778.78162"
       r="64.621246" />
    <linearGradient
       inkscape:collect="always"
       xlink:href="#linearGradient5504"
       id="linearGradient5510"
       x1="514"
       y1="674.36218"
       x2="546.43384"
       y2="669.83972"
       gradientUnits="userSpaceOnUse" />
  </defs>
  <metadata
     id="metadata7">
    <rdf:RDF>
      <cc:Work
         rdf:about="">
        <dc:format>image/svg+xml</dc:format>
        <dc:type
           rdf:resource="http://purl.org/dc/dcmitype/StillImage" />
        <dc:title></dc:title>
      </cc:Work>
    </rdf:RDF>
  </metadata>
  <g
     style="opacity:0.92000002;display:inline"
     inkscape:label="Regions"
     id="layer5"
     inkscape:groupmode="layer">
    <g
       id="g4081"
       transform="matrix(0.64046032,0,0,0.99797733,573.95922,1.1426627)">
      <rect
         y="494.77646"
         x="-439.94724"
         height="269.99988"
         width="429.83771"
         id="rect4051"
         style="fill:url(#radialGradient4093);fill-opacity:1;fill-rule:evenodd;stroke:none;display:inline" />
      <rect
         style="fill:url(#linearGradient4095);fill-opacity:1;fill-rule:evenodd;stroke:none;display:inline"
         id="rect4063"
         width="281.34528"
         height="269.99988"
         x="-721.29248"
         y="494.76541" />
    </g>
    <rect
       style="opacity:0;fill:url(#radialGradient6580);fill-opacity:1;fill-rule:evenodd;stroke:none;display:inline"
       id="rect6526"
       width="424"
       height="304"
       x="112"
       y="460.36218" />
    <g
       id="g4107">
      <path
         sodipodi:nodetypes="ccccc"
         inkscape:connector-curvature="0"
         id="path4105"
         d="m 364.47565,764.73718 207.52435,0 -0.10799,-97.68497 c -77.71879,6.87566 -148.9159,19.41085 -207.41638,36.72621 z"
         style="fill:#ffffff;fill-opacity:1;stroke:none;display:inline" />
      <path
         style="fill:url(#radialGradient4113);fill-opacity:1;stroke:none;display:inline"
         d="m 359.17235,764.73718 183.32765,0 -0.0954,-94.90464 c -68.65702,6.67996 -131.55277,18.85838 -183.23227,35.68091 z"
         id="path6422"
         inkscape:connector-curvature="0"
         sodipodi:nodetypes="ccccc" />
    </g>
    <g
       transform="matrix(0.99592242,0,0,0.99098947,1.3098295,5.4384729)"
       id="g6397"
       style="fill:#edfcfd;fill-opacity:1;stroke:none;display:inline">
      <path
         sodipodi:nodetypes="ccccc"
         inkscape:connector-curvature="0"
         id="path6399"
         d="m 257.58556,593.96009 c 38.81337,11.38184 63.0352,31.17227 64.66818,53.06596 l -133.62362,0.23916 0.18924,-62.95235 c 24.55032,0.23305 48.1857,3.58734 68.77152,9.64788"
         style="opacity:0.98000004;fill:#edfcfd;fill-opacity:1;stroke:none"
         transform="matrix(1.968759,0,0,3.081864,-260.22388,-1228.2024)" />
    </g>
    <path
       style="opacity:0.98000004;fill:url(#radialGradient5502);fill-opacity:1;stroke:none;display:inline"
       d="m 405.12535,764.98729 129.20908,0.0625 0.0501,-95.8575 c 0,0 -33.96365,7.5402 -50.38453,13.16989 -19.21108,6.58628 -38.46589,13.75308 -56,24 -12.31807,7.19867 -24.43464,15.41419 -34,26 -8.52821,9.43801 -20,32.50011 -20,32.50011"
       id="path4304"
       inkscape:connector-curvature="0"
       sodipodi:nodetypes="cccaaac" />
  </g>
  <g
     inkscape:groupmode="layer"
     id="layer3"
     inkscape:label="Lines"
     style="opacity:0.98000004;display:inline">
    <path
       style="fill:none;stroke:#000000;stroke-width:1.0629921;stroke-linecap:butt;stroke-linejoin:miter;stroke-miterlimit:4;stroke-opacity:1;stroke-dasharray:none;display:inline"
       d="m 332,770.56785 0,-5.41134"
       id="path7726-5-7"
       inkscape:path-effect="#path-effect7728-3-3"
       inkscape:original-d="m 332,770.56785 0,-5.41134"
       inkscape:connector-curvature="0" />
    <path
       style="opacity:0.98000004;fill:none;stroke:#000000;stroke-width:1.02464819;stroke-linecap:butt;stroke-linejoin:miter;stroke-miterlimit:4;stroke-opacity:1;stroke-dasharray:none;marker-end:url(#Arrow1Lend);display:inline"
       d="m 112,780.52803 0,-303.65352"
       id="path4510"
       inkscape:path-effect="#path-effect4512"
       inkscape:original-d="m 112,780.52803 0,-303.65352"
       inkscape:connector-curvature="0" />
    <path
       style="opacity:0.98000004;fill:none;stroke:#000000;stroke-width:1.0629921;stroke-linecap:butt;stroke-linejoin:miter;stroke-miterlimit:4;stroke-opacity:1;stroke-dasharray:none;display:inline"
       d="m 111.5,572.36218 -7.33112,0"
       id="path7726"
       inkscape:path-effect="#path-effect7728"
       inkscape:original-d="m 111.5,572.36218 -7.33112,0"
       inkscape:connector-curvature="0" />
  </g>
  <g
     inkscape:groupmode="layer"
     id="layer1"
     inkscape:label="Crossover"
     style="display:inline">
    <path
       transform="matrix(1.1268767,0,0,0.62860239,-61.673765,422.53244)"
       sodipodi:open="true"
       sodipodi:end="4.3791422"
       sodipodi:start="3.9556874"
       d="m 373.46243,450.17488 a 384.28305,237.5 0 0 1 138.11671,-51.7467"
       sodipodi:ry="237.5"
       sodipodi:rx="384.28305"
       sodipodi:cy="622.86218"
       sodipodi:cx="637.28308"
       id="path6379"
       style="fill:none;stroke:#000000;stroke-width:1.26300156;stroke-linecap:butt;stroke-linejoin:miter;stroke-miterlimit:4;stroke-opacity:1;stroke-dasharray:3.78900454, 3.78900454;stroke-dashoffset:0;display:inline"
       sodipodi:type="arc" />
  </g>
  <g
     inkscape:groupmode="layer"
     id="layer2"
     inkscape:label="Critical_Lines_Dots"
     style="display:inline">
    <path
       transform="matrix(4.9481858,0,0,5.2127407,-684.34671,-2690.4768)"
       sodipodi:open="true"
       sodipodi:end="6.2991475"
       sodipodi:start="5.8580632"
       d="m 201.19459,659.35382 a 19.041763,8.2256413 0 0 1 1.69251,3.52381"
       sodipodi:ry="8.2256413"
       sodipodi:rx="19.041763"
       sodipodi:cy="662.74634"
       sodipodi:cx="183.84776"
       id="path6389"
       style="fill:none;stroke:#ff8000;stroke-width:0.69767433;stroke-linecap:butt;stroke-linejoin:miter;stroke-miterlimit:4;stroke-opacity:1;stroke-dasharray:none;stroke-dashoffset:0;display:inline"
       sodipodi:type="arc" />
    <path
       style="fill:none;stroke:url(#linearGradient5510);stroke-width:3.54330707;stroke-linecap:butt;stroke-linejoin:miter;stroke-miterlimit:4;stroke-opacity:1;stroke-dasharray:none;display:inline"
       d="m 374.2,763.46218 c 0,0 12.78829,-21.54457 21.3,-30.6 11.21335,-11.92965 24.33453,-22.29055 38.5,-30.5 15.53089,-9.00076 32.96661,-14.33557 50,-20 20.56812,-6.8399 41.62664,-12.24528 62.81475,-16.81651 11.69923,-2.52405 35.427,-5.84064 35.427,-5.84064"
       id="path4300"
       inkscape:connector-curvature="0"
       sodipodi:nodetypes="caaaac" />
    <path
       style="opacity:0.98000004;fill:none;stroke:#000000;stroke-width:1.0629921;stroke-linecap:butt;stroke-linejoin:miter;stroke-miterlimit:4;stroke-opacity:1;stroke-dasharray:none;marker-end:url(#Arrow1Lend);display:inline"
       d="m 96.002509,764.86218 495.297821,0"
       id="path4506"
       inkscape:path-effect="#path-effect4508"
       inkscape:original-d="m 96.002509,764.86218 495.297821,0"
       inkscape:connector-curvature="0" />
    <path
       sodipodi:type="arc"
       style="opacity:0.98000004;fill:#0066ff;fill-opacity:1;stroke:none;display:inline"
       id="path3263"
       sodipodi:cx="69.28125"
       sodipodi:cy="478.58093"
       sodipodi:rx="3.8062837"
       sodipodi:ry="3.8062837"
       d="m 73.087534,478.58093 a 3.8062837,3.8062837 0 1 1 -7.612568,0 3.8062837,3.8062837 0 1 1 7.612568,0 z"
       transform="matrix(1.4782637,0,0,1.4782637,208.78554,39.094873)" />
  </g>
  <g
     inkscape:groupmode="layer"
     id="g14018"
     inkscape:label="Line_uds_Massive"
     style="display:none">
    <path
       sodipodi:end="6.2498321"
       sodipodi:start="4.9771378"
       sodipodi:open="true"
       transform="matrix(1.968759,0,0,3.081864,-260.22388,-1228.2024)"
       d="m 221.2751,586.50071 a 136.72003,64.612694 0 0 1 100.86889,60.20683"
       sodipodi:ry="64.612694"
       sodipodi:rx="136.72003"
       sodipodi:cy="648.86218"
       sodipodi:cx="185.5"
       id="path14022"
       style="opacity:0.98000004;fill:none;stroke:#ff8000;stroke-width:1.43848646;stroke-linecap:butt;stroke-linejoin:miter;stroke-miterlimit:4;stroke-opacity:1;stroke-dasharray:none;stroke-dashoffset:0"
       sodipodi:type="arc" />
    <path
       sodipodi:type="arc"
       style="fill:none;stroke:#000000;stroke-width:0.28864172;stroke-linecap:butt;stroke-linejoin:miter;stroke-miterlimit:4;stroke-opacity:1;stroke-dasharray:1.73185039, 1.73185039;stroke-dashoffset:0"
       id="path14024"
       sodipodi:cx="185.5"
       sodipodi:cy="648.86218"
       sodipodi:rx="136.72003"
       sodipodi:ry="64.612694"
       d="m 189.09973,584.27189 a 136.72003,64.612694 0 0 1 33.7687,2.43786"
       transform="matrix(1.9623172,0,0,3.0717801,-258.9568,-1222.3962)"
       sodipodi:open="true"
       sodipodi:start="4.7387212"
       sodipodi:end="4.9892326" />
    <path
       transform="matrix(1.4782637,0,0,1.4782637,72.997507,-128.1558)"
       d="m 73.087534,478.58093 a 3.8062837,3.8062837 0 1 1 -7.612568,0 3.8062837,3.8062837 0 1 1 7.612568,0 z"
       sodipodi:ry="3.8062837"
       sodipodi:rx="3.8062837"
       sodipodi:cy="478.58093"
       sodipodi:cx="69.28125"
       id="path14026"
       style="opacity:0.98000004;fill:#0066ff;fill-opacity:1;stroke:none;display:inline"
       sodipodi:type="arc" />
  </g>
  <g
     style="display:inline"
     inkscape:label="Line_s_Massive"
     id="g5558"
     inkscape:groupmode="layer">
    <path
       sodipodi:type="arc"
       style="opacity:0.98000004;fill:none;stroke:#00b400;stroke-width:1.43848646;stroke-linecap:butt;stroke-linejoin:miter;stroke-miterlimit:4;stroke-opacity:1;stroke-dasharray:none;stroke-dashoffset:0"
       id="path5560"
       sodipodi:cx="185.5"
       sodipodi:cy="648.86218"
       sodipodi:rx="136.72003"
       sodipodi:ry="64.612694"
       d="m 189.09753,584.27186 a 136.72003,64.612694 0 0 1 133.04646,62.43568"
       transform="matrix(1.968759,0,0,3.081864,-260.22388,-1228.2024)"
       sodipodi:open="true"
       sodipodi:start="4.7387051"
       sodipodi:end="6.2498321" />
  </g>
  <g
     inkscape:groupmode="layer"
     id="layer6"
     inkscape:label="Phases"
     style="display:none">
    <g
       style="display:inline;opacity:0.92000002"
       ns0:text="QGP"
       ns0:preamble=""
       transform="matrix(1.6034478,0,0,1.6034478,-12.178332,420.35732)"
       id="g7131"
       inkscape:transform-center-x="-17.014833">
      <defs
         id="defs7133">
        <g
           id="g7135">
          <symbol
             style="overflow:visible"
             overflow="visible"
             id="textext-b9188d26-0">
            <path
               inkscape:connector-curvature="0"
               style="stroke:none"
               d=""
               id="path7138" />
          </symbol>
          <symbol
             style="overflow:visible"
             overflow="visible"
             id="textext-b9188d26-1">
            <path
               inkscape:connector-curvature="0"
               style="stroke:none"
               d="M 3.203125,-0.15625 C 2.671875,-0.359375 1.5625,-1.09375 1.5625,-3.375 c 0,-2.59375 1.390625,-3.40625 2.3125,-3.40625 0.953125,0 2.3125,0.859375 2.3125,3.40625 0,0.765625 -0.109375,2.171875 -1.171875,2.953125 -0.21875,-0.5625 -0.546875,-1.046875 -1.125,-1.046875 -0.515625,0 -0.8125,0.421875 -0.8125,0.828125 0,0.265625 0.125,0.46875 0.125,0.484375 z M 4.75,-0.265625 C 4.421875,-0.0625 4.09375,-0.03125 3.875,-0.03125 c -0.5,0 -0.578125,-0.453125 -0.578125,-0.609375 0,-0.28125 0.203125,-0.609375 0.59375,-0.609375 0.53125,0 0.75,0.40625 0.859375,0.984375 z M 5.15625,-0.0625 C 6.34375,-0.59375 7.1875,-1.875 7.1875,-3.375 c 0,-2.03125 -1.5,-3.65625 -3.3125,-3.65625 -1.796875,0 -3.3125,1.59375 -3.3125,3.65625 0,2.015625 1.5,3.59375 3.3125,3.59375 0.3125,0 0.65625,-0.0625 0.953125,-0.15625 0.140625,0.953125 0.28125,1.875 1.21875,1.875 C 7.0625,1.9375 7.25,0.609375 7.25,0.09375 7.25,0 7.25,-0.109375 7.140625,-0.109375 7.046875,-0.109375 7.03125,-0.03125 7.03125,0.0625 6.96875,0.609375 6.546875,0.90625 6.125,0.90625 5.65625,0.90625 5.40625,0.5625 5.15625,-0.0625 Z m 0,0"
               id="path7141" />
          </symbol>
          <symbol
             style="overflow:visible"
             overflow="visible"
             id="textext-b9188d26-2">
            <path
               inkscape:connector-curvature="0"
               style="stroke:none"
               d="m 5.90625,-0.625 c 0.140625,0.21875 0.53125,0.609375 0.640625,0.609375 0.09375,0 0.09375,-0.078125 0.09375,-0.21875 l 0,-1.734375 c 0,-0.390625 0.03125,-0.4375 0.6875,-0.4375 l 0,-0.3125 c -0.375,0 -0.921875,0.03125 -1.21875,0.03125 -0.390625,0 -1.25,0 -1.609375,-0.03125 l 0,0.3125 0.328125,0 C 5.71875,-2.40625 5.75,-2.296875 5.75,-1.9375 l 0,0.640625 c 0,1.125 -1.265625,1.203125 -1.546875,1.203125 -0.640625,0 -2.625,-0.34375 -2.625,-3.3125 0,-2.984375 1.96875,-3.3125 2.5625,-3.3125 1.078125,0 1.984375,0.890625 2.171875,2.359375 0.03125,0.140625 0.03125,0.171875 0.171875,0.171875 0.15625,0 0.15625,-0.03125 0.15625,-0.234375 l 0,-2.359375 c 0,-0.171875 0,-0.25 -0.109375,-0.25 -0.046875,0 -0.078125,0 -0.15625,0.125 l -0.5,0.734375 C 5.546875,-6.484375 5.015625,-7.03125 4.03125,-7.03125 c -1.859375,0 -3.46875,1.578125 -3.46875,3.625 0,2.046875 1.59375,3.625 3.484375,3.625 0.734375,0 1.53125,-0.265625 1.859375,-0.84375 z m 0,0"
               id="path7144" />
          </symbol>
          <symbol
             style="overflow:visible"
             overflow="visible"
             id="textext-b9188d26-3">
            <path
               inkscape:connector-curvature="0"
               style="stroke:none"
               d="m 2.265625,-3.15625 1.6875,0 c 1.1875,0 2.265625,-0.796875 2.265625,-1.796875 C 6.21875,-5.9375 5.234375,-6.8125 3.875,-6.8125 l -3.53125,0 0,0.3125 0.25,0 c 0.765625,0 0.78125,0.109375 0.78125,0.46875 l 0,5.25 c 0,0.359375 -0.015625,0.46875 -0.78125,0.46875 l -0.25,0 0,0.3125 c 0.359375,-0.03125 1.09375,-0.03125 1.46875,-0.03125 0.375,0 1.125,0 1.484375,0.03125 l 0,-0.3125 -0.25,0 c -0.765625,0 -0.78125,-0.109375 -0.78125,-0.46875 z m -0.03125,-0.25 0,-2.6875 C 2.234375,-6.4375 2.25,-6.5 2.71875,-6.5 l 0.890625,0 c 1.578125,0 1.578125,1.0625 1.578125,1.546875 0,0.46875 0,1.546875 -1.578125,1.546875 z m 0,0"
               id="path7147" />
          </symbol>
        </g>
      </defs>
      <g
         id="textext-b9188d26-4">
        <g
           style="fill:#000000;fill-opacity:1"
           id="g7150">
          <use
             height="1052.3622"
             width="744.09448"
             xlink:href="#textext-b9188d26-1"
             x="223.43201"
             y="134.765"
             id="use7152" />
          <use
             height="1052.3622"
             width="744.09448"
             xlink:href="#textext-b9188d26-2"
             x="231.18091"
             y="134.765"
             id="use7154" />
          <use
             height="1052.3622"
             width="744.09448"
             xlink:href="#textext-b9188d26-3"
             x="238.99857"
             y="134.765"
             id="use7156" />
        </g>
      </g>
    </g>
    <g
       id="g5897"
       style="display:inline;opacity:0.92000002"
       transform="matrix(1.6034478,0,0,1.6034478,-418.03299,467.07351)"
       ns0:preamble=""
       ns0:text="\\centering{Hadronic\\\\matter}">
      <defs
         id="defs5899">
        <g
           id="g5901">
          <symbol
             id="textext-9aa4a691-0"
             overflow="visible"
             style="overflow:visible">
            <path
               id="path5904"
               d=""
               style="stroke:none"
               inkscape:connector-curvature="0" />
          </symbol>
          <symbol
             id="textext-9aa4a691-1"
             overflow="visible"
             style="overflow:visible">
            <path
               id="path5907"
               d="M 6.109375,-6.03125 C 6.109375,-6.390625 6.125,-6.5 6.890625,-6.5 l 0.25,0 0,-0.3125 c -0.359375,0.03125 -1.09375,0.03125 -1.46875,0.03125 -0.375,0 -1.125,0 -1.46875,-0.03125 l 0,0.3125 0.234375,0 c 0.765625,0 0.78125,0.109375 0.78125,0.46875 l 0,2.328125 -2.96875,0 0,-2.328125 C 2.25,-6.390625 2.265625,-6.5 3.03125,-6.5 l 0.234375,0 0,-0.3125 c -0.34375,0.03125 -1.078125,0.03125 -1.46875,0.03125 -0.375,0 -1.125,0 -1.46875,-0.03125 l 0,0.3125 0.234375,0 c 0.765625,0 0.796875,0.109375 0.796875,0.46875 l 0,5.25 c 0,0.359375 -0.03125,0.46875 -0.796875,0.46875 l -0.234375,0 0,0.3125 c 0.34375,-0.03125 1.09375,-0.03125 1.46875,-0.03125 0.375,0 1.125,0 1.46875,0.03125 l 0,-0.3125 -0.234375,0 C 2.265625,-0.3125 2.25,-0.421875 2.25,-0.78125 l 0,-2.609375 2.96875,0 0,2.609375 c 0,0.359375 -0.015625,0.46875 -0.78125,0.46875 l -0.234375,0 0,0.3125 c 0.34375,-0.03125 1.078125,-0.03125 1.453125,-0.03125 0.390625,0 1.125,0 1.484375,0.03125 l 0,-0.3125 -0.25,0 c -0.765625,0 -0.78125,-0.109375 -0.78125,-0.46875 z m 0,0"
               style="stroke:none"
               inkscape:connector-curvature="0" />
          </symbol>
          <symbol
             id="textext-9aa4a691-2"
             overflow="visible"
             style="overflow:visible">
            <path
               id="path5910"
               d="m 3.3125,-0.75 c 0.046875,0.390625 0.3125,0.8125 0.78125,0.8125 0.21875,0 0.828125,-0.140625 0.828125,-0.953125 l 0,-0.5625 -0.25,0 0,0.5625 c 0,0.578125 -0.25,0.640625 -0.359375,0.640625 -0.328125,0 -0.375,-0.453125 -0.375,-0.5 l 0,-1.984375 c 0,-0.421875 0,-0.8125 -0.359375,-1.1875 C 3.1875,-4.3125 2.6875,-4.46875 2.21875,-4.46875 c -0.828125,0 -1.515625,0.46875 -1.515625,1.125 0,0.296875 0.203125,0.46875 0.46875,0.46875 0.28125,0 0.453125,-0.203125 0.453125,-0.453125 0,-0.125 -0.046875,-0.453125 -0.515625,-0.453125 C 1.390625,-4.140625 1.875,-4.25 2.1875,-4.25 c 0.5,0 1.0625,0.390625 1.0625,1.28125 l 0,0.359375 c -0.515625,0.03125 -1.203125,0.0625 -1.828125,0.359375 -0.75,0.34375 -1,0.859375 -1,1.296875 0,0.8125 0.96875,1.0625 1.59375,1.0625 0.65625,0 1.109375,-0.40625 1.296875,-0.859375 z M 3.25,-2.390625 l 0,1 c 0,0.9375 -0.71875,1.28125 -1.171875,1.28125 -0.484375,0 -0.890625,-0.34375 -0.890625,-0.84375 0,-0.546875 0.421875,-1.375 2.0625,-1.4375 z m 0,0"
               style="stroke:none"
               inkscape:connector-curvature="0" />
          </symbol>
          <symbol
             id="textext-9aa4a691-3"
             overflow="visible"
             style="overflow:visible">
            <path
               id="path5913"
               d="m 3.78125,-0.546875 0,0.65625 L 5.25,0 l 0,-0.3125 c -0.6875,0 -0.78125,-0.0625 -0.78125,-0.5625 l 0,-6.046875 -1.421875,0.109375 0,0.3125 c 0.6875,0 0.765625,0.0625 0.765625,0.5625 l 0,2.15625 c -0.28125,-0.359375 -0.71875,-0.625 -1.25,-0.625 -1.171875,0 -2.21875,0.984375 -2.21875,2.265625 0,1.265625 0.96875,2.25 2.109375,2.25 0.640625,0 1.078125,-0.34375 1.328125,-0.65625 z m 0,-2.671875 0,2.046875 c 0,0.171875 0,0.1875 -0.109375,0.359375 C 3.375,-0.328125 2.9375,-0.109375 2.5,-0.109375 2.046875,-0.109375 1.6875,-0.375 1.453125,-0.75 1.203125,-1.15625 1.171875,-1.71875 1.171875,-2.140625 1.171875,-2.5 1.1875,-3.09375 1.46875,-3.546875 1.6875,-3.859375 2.0625,-4.1875 2.609375,-4.1875 c 0.34375,0 0.765625,0.15625 1.0625,0.59375 0.109375,0.171875 0.109375,0.1875 0.109375,0.375 z m 0,0"
               style="stroke:none"
               inkscape:connector-curvature="0" />
          </symbol>
          <symbol
             id="textext-9aa4a691-4"
             overflow="visible"
             style="overflow:visible">
            <path
               id="path5916"
               d="m 1.671875,-3.3125 0,-1.09375 -1.390625,0.109375 0,0.3125 c 0.703125,0 0.78125,0.0625 0.78125,0.5625 l 0,2.671875 c 0,0.4375 -0.109375,0.4375 -0.78125,0.4375 l 0,0.3125 c 0.390625,-0.015625 0.859375,-0.03125 1.140625,-0.03125 0.390625,0 0.859375,0 1.265625,0.03125 l 0,-0.3125 -0.21875,0 c -0.734375,0 -0.75,-0.109375 -0.75,-0.46875 l 0,-1.53125 c 0,-0.984375 0.421875,-1.875 1.171875,-1.875 0.0625,0 0.09375,0 0.109375,0.015625 -0.03125,0 -0.234375,0.125 -0.234375,0.390625 0,0.265625 0.21875,0.421875 0.4375,0.421875 0.171875,0 0.421875,-0.125 0.421875,-0.4375 0,-0.3125 -0.3125,-0.609375 -0.734375,-0.609375 -0.734375,0 -1.09375,0.671875 -1.21875,1.09375 z m 0,0"
               style="stroke:none"
               inkscape:connector-curvature="0" />
          </symbol>
          <symbol
             id="textext-9aa4a691-5"
             overflow="visible"
             style="overflow:visible">
            <path
               id="path5919"
               d="M 4.6875,-2.140625 C 4.6875,-3.40625 3.703125,-4.46875 2.5,-4.46875 c -1.25,0 -2.21875,1.09375 -2.21875,2.328125 0,1.296875 1.03125,2.25 2.203125,2.25 1.203125,0 2.203125,-0.984375 2.203125,-2.25 z m -2.1875,2 c -0.4375,0 -0.875,-0.203125 -1.140625,-0.671875 -0.25,-0.4375 -0.25,-1.046875 -0.25,-1.40625 0,-0.390625 0,-0.921875 0.234375,-1.359375 C 1.609375,-4.03125 2.078125,-4.25 2.484375,-4.25 c 0.4375,0 0.859375,0.21875 1.125,0.65625 0.265625,0.421875 0.265625,1 0.265625,1.375 0,0.359375 0,0.90625 -0.21875,1.34375 C 3.421875,-0.421875 2.984375,-0.140625 2.5,-0.140625 Z m 0,0"
               style="stroke:none"
               inkscape:connector-curvature="0" />
          </symbol>
          <symbol
             id="textext-9aa4a691-6"
             overflow="visible"
             style="overflow:visible">
            <path
               id="path5922"
               d="m 1.09375,-3.421875 0,2.671875 c 0,0.4375 -0.109375,0.4375 -0.78125,0.4375 l 0,0.3125 c 0.359375,-0.015625 0.859375,-0.03125 1.140625,-0.03125 0.25,0 0.765625,0.015625 1.109375,0.03125 l 0,-0.3125 c -0.671875,0 -0.78125,0 -0.78125,-0.4375 l 0,-1.84375 C 1.78125,-3.625 2.5,-4.1875 3.125,-4.1875 c 0.640625,0 0.75,0.53125 0.75,1.109375 l 0,2.328125 c 0,0.4375 -0.109375,0.4375 -0.78125,0.4375 l 0,0.3125 c 0.34375,-0.015625 0.859375,-0.03125 1.125,-0.03125 0.25,0 0.78125,0.015625 1.109375,0.03125 l 0,-0.3125 c -0.515625,0 -0.765625,0 -0.765625,-0.296875 l 0,-1.90625 c 0,-0.859375 0,-1.15625 -0.3125,-1.515625 -0.140625,-0.171875 -0.46875,-0.375 -1.046875,-0.375 C 2.46875,-4.40625 2,-3.984375 1.71875,-3.359375 l 0,-1.046875 -1.40625,0.109375 0,0.3125 c 0.703125,0 0.78125,0.0625 0.78125,0.5625 z m 0,0"
               style="stroke:none"
               inkscape:connector-curvature="0" />
          </symbol>
          <symbol
             id="textext-9aa4a691-7"
             overflow="visible"
             style="overflow:visible">
            <path
               id="path5925"
               d="M 1.765625,-4.40625 0.375,-4.296875 l 0,0.3125 c 0.640625,0 0.734375,0.0625 0.734375,0.546875 l 0,2.6875 c 0,0.4375 -0.109375,0.4375 -0.78125,0.4375 l 0,0.3125 C 0.640625,-0.015625 1.1875,-0.03125 1.421875,-0.03125 1.78125,-0.03125 2.125,-0.015625 2.46875,0 l 0,-0.3125 c -0.671875,0 -0.703125,-0.046875 -0.703125,-0.4375 z m 0.03125,-1.734375 c 0,-0.3125 -0.234375,-0.53125 -0.515625,-0.53125 -0.3125,0 -0.53125,0.265625 -0.53125,0.53125 0,0.265625 0.21875,0.53125 0.53125,0.53125 0.28125,0 0.515625,-0.21875 0.515625,-0.53125 z m 0,0"
               style="stroke:none"
               inkscape:connector-curvature="0" />
          </symbol>
          <symbol
             id="textext-9aa4a691-8"
             overflow="visible"
             style="overflow:visible">
            <path
               id="path5928"
               d="m 1.171875,-2.171875 c 0,-1.625 0.8125,-2.046875 1.34375,-2.046875 0.09375,0 0.71875,0.015625 1.0625,0.375 -0.40625,0.03125 -0.46875,0.328125 -0.46875,0.453125 0,0.265625 0.1875,0.453125 0.453125,0.453125 0.265625,0 0.46875,-0.15625 0.46875,-0.46875 0,-0.671875 -0.765625,-1.0625 -1.53125,-1.0625 -1.25,0 -2.15625,1.078125 -2.15625,2.3125 0,1.28125 0.984375,2.265625 2.140625,2.265625 1.328125,0 1.65625,-1.203125 1.65625,-1.296875 0,-0.09375 -0.109375,-0.09375 -0.140625,-0.09375 -0.078125,0 -0.109375,0.03125 -0.125,0.09375 -0.28125,0.921875 -0.9375,1.046875 -1.296875,1.046875 -0.53125,0 -1.40625,-0.421875 -1.40625,-2.03125 z m 0,0"
               style="stroke:none"
               inkscape:connector-curvature="0" />
          </symbol>
          <symbol
             id="textext-9aa4a691-9"
             overflow="visible"
             style="overflow:visible">
            <path
               id="path5931"
               d="m 1.09375,-3.421875 0,2.671875 c 0,0.4375 -0.109375,0.4375 -0.78125,0.4375 l 0,0.3125 c 0.359375,-0.015625 0.859375,-0.03125 1.140625,-0.03125 0.25,0 0.765625,0.015625 1.109375,0.03125 l 0,-0.3125 c -0.671875,0 -0.78125,0 -0.78125,-0.4375 l 0,-1.84375 C 1.78125,-3.625 2.5,-4.1875 3.125,-4.1875 c 0.640625,0 0.75,0.53125 0.75,1.109375 l 0,2.328125 c 0,0.4375 -0.109375,0.4375 -0.78125,0.4375 l 0,0.3125 c 0.34375,-0.015625 0.859375,-0.03125 1.125,-0.03125 0.25,0 0.78125,0.015625 1.109375,0.03125 l 0,-0.3125 c -0.65625,0 -0.765625,0 -0.765625,-0.4375 l 0,-1.84375 c 0,-1.03125 0.703125,-1.59375 1.34375,-1.59375 0.625,0 0.734375,0.53125 0.734375,1.109375 l 0,2.328125 c 0,0.4375 -0.109375,0.4375 -0.78125,0.4375 l 0,0.3125 c 0.34375,-0.015625 0.859375,-0.03125 1.125,-0.03125 0.265625,0 0.78125,0.015625 1.125,0.03125 l 0,-0.3125 c -0.515625,0 -0.765625,0 -0.78125,-0.296875 l 0,-1.90625 c 0,-0.859375 0,-1.15625 -0.3125,-1.515625 -0.140625,-0.171875 -0.46875,-0.375 -1.046875,-0.375 -0.828125,0 -1.28125,0.59375 -1.4375,0.984375 C 4.390625,-4.296875 3.65625,-4.40625 3.203125,-4.40625 2.46875,-4.40625 2,-3.984375 1.71875,-3.359375 l 0,-1.046875 -1.40625,0.109375 0,0.3125 c 0.703125,0 0.78125,0.0625 0.78125,0.5625 z m 0,0"
               style="stroke:none"
               inkscape:connector-curvature="0" />
          </symbol>
          <symbol
             id="textext-9aa4a691-10"
             overflow="visible"
             style="overflow:visible">
            <path
               id="path5934"
               d="m 1.71875,-3.984375 1.4375,0 0,-0.3125 -1.4375,0 0,-1.828125 -0.25,0 c 0,0.8125 -0.296875,1.875 -1.28125,1.921875 l 0,0.21875 0.84375,0 0,2.75 c 0,1.21875 0.9375,1.34375 1.296875,1.34375 0.703125,0 0.984375,-0.703125 0.984375,-1.34375 l 0,-0.5625 -0.25,0 0,0.546875 c 0,0.734375 -0.296875,1.109375 -0.671875,1.109375 -0.671875,0 -0.671875,-0.90625 -0.671875,-1.078125 z m 0,0"
               style="stroke:none"
               inkscape:connector-curvature="0" />
          </symbol>
          <symbol
             id="textext-9aa4a691-11"
             overflow="visible"
             style="overflow:visible">
            <path
               id="path5937"
               d="M 1.109375,-2.515625 C 1.171875,-4 2.015625,-4.25 2.359375,-4.25 c 1.015625,0 1.125,1.34375 1.125,1.734375 z m 0,0.21875 2.78125,0 c 0.21875,0 0.25,0 0.25,-0.21875 0,-0.984375 -0.546875,-1.953125 -1.78125,-1.953125 -1.15625,0 -2.078125,1.03125 -2.078125,2.28125 0,1.328125 1.046875,2.296875 2.1875,2.296875 C 3.6875,0.109375 4.140625,-1 4.140625,-1.1875 4.140625,-1.28125 4.0625,-1.3125 4,-1.3125 c -0.078125,0 -0.109375,0.0625 -0.125,0.140625 -0.34375,1.03125 -1.25,1.03125 -1.34375,1.03125 -0.5,0 -0.890625,-0.296875 -1.125,-0.671875 -0.296875,-0.46875 -0.296875,-1.125 -0.296875,-1.484375 z m 0,0"
               style="stroke:none"
               inkscape:connector-curvature="0" />
          </symbol>
        </g>
      </defs>
      <g
         id="textext-9aa4a691-12">
        <g
           id="g5940"
           style="fill:#000000;fill-opacity:1">
          <use
             id="use5942"
             y="134.765"
             x="375.487"
             xlink:href="#textext-9aa4a691-1"
             width="744.09448"
             height="1052.3622" />
          <use
             id="use5944"
             y="134.765"
             x="382.95895"
             xlink:href="#textext-9aa4a691-2"
             width="744.09448"
             height="1052.3622" />
          <use
             id="use5946"
             y="134.765"
             x="387.94025"
             xlink:href="#textext-9aa4a691-3"
             width="744.09448"
             height="1052.3622" />
          <use
             id="use5948"
             y="134.765"
             x="393.47546"
             xlink:href="#textext-9aa4a691-4"
             width="744.09448"
             height="1052.3622" />
          <use
             id="use5950"
             y="134.765"
             x="397.37781"
             xlink:href="#textext-9aa4a691-5"
             width="744.09448"
             height="1052.3622" />
          <use
             id="use5952"
             y="134.765"
             x="402.35913"
             xlink:href="#textext-9aa4a691-6"
             width="744.09448"
             height="1052.3622" />
          <use
             id="use5954"
             y="134.765"
             x="407.89435"
             xlink:href="#textext-9aa4a691-7"
             width="744.09448"
             height="1052.3622" />
          <use
             id="use5956"
             y="134.765"
             x="410.66196"
             xlink:href="#textext-9aa4a691-8"
             width="744.09448"
             height="1052.3622" />
        </g>
        <g
           id="g5958"
           style="fill:#000000;fill-opacity:1">
          <use
             id="use5960"
             y="146.72"
             x="380.60699"
             xlink:href="#textext-9aa4a691-9"
             width="744.09448"
             height="1052.3622" />
          <use
             id="use5962"
             y="146.72"
             x="388.90884"
             xlink:href="#textext-9aa4a691-2"
             width="744.09448"
             height="1052.3622" />
          <use
             id="use5964"
             y="146.72"
             x="393.89014"
             xlink:href="#textext-9aa4a691-10"
             width="744.09448"
             height="1052.3622" />
          <use
             id="use5966"
             y="146.72"
             x="397.76459"
             xlink:href="#textext-9aa4a691-10"
             width="744.09448"
             height="1052.3622" />
          <use
             id="use5968"
             y="146.72"
             x="401.63904"
             xlink:href="#textext-9aa4a691-11"
             width="744.09448"
             height="1052.3622" />
          <use
             id="use5970"
             y="146.72"
             x="406.06644"
             xlink:href="#textext-9aa4a691-4"
             width="744.09448"
             height="1052.3622" />
        </g>
      </g>
    </g>
    <g
       id="g5197"
       style="display:inline;opacity:0.92000002"
       transform="matrix(1.6034478,0,0,1.6034478,98.09482,526.23528)"
       ns0:preamble=""
       ns0:text="CFL">
      <defs
         id="defs5199">
        <g
           id="g5201">
          <symbol
             id="textext-77b94536-0"
             overflow="visible"
             style="overflow:visible">
            <path
               id="path5204"
               d=""
               style="stroke:none"
               inkscape:connector-curvature="0" />
          </symbol>
          <symbol
             id="textext-77b94536-1"
             overflow="visible"
             style="overflow:visible">
            <path
               id="path5207"
               d="m 0.5625,-3.40625 c 0,2.0625 1.609375,3.625 3.46875,3.625 1.625,0 2.59375,-1.390625 2.59375,-2.546875 C 6.625,-2.421875 6.625,-2.5 6.5,-2.5 6.390625,-2.5 6.390625,-2.4375 6.375,-2.328125 6.296875,-0.90625 5.234375,-0.09375 4.140625,-0.09375 c -0.609375,0 -2.5625,-0.328125 -2.5625,-3.3125 0,-2.96875 1.953125,-3.3125 2.5625,-3.3125 1.078125,0 1.96875,0.90625 2.171875,2.359375 0.015625,0.140625 0.015625,0.171875 0.15625,0.171875 0.15625,0 0.15625,-0.03125 0.15625,-0.234375 l 0,-2.359375 c 0,-0.171875 0,-0.25 -0.109375,-0.25 -0.03125,0 -0.078125,0 -0.15625,0.125 l -0.5,0.734375 C 5.5,-6.53125 4.984375,-7.03125 4.03125,-7.03125 c -1.875,0 -3.46875,1.59375 -3.46875,3.625 z m 0,0"
               style="stroke:none"
               inkscape:connector-curvature="0" />
          </symbol>
          <symbol
             id="textext-77b94536-2"
             overflow="visible"
             style="overflow:visible">
            <path
               id="path5210"
               d="m 5.796875,-6.78125 -5.46875,0 0,0.3125 0.234375,0 c 0.765625,0 0.796875,0.109375 0.796875,0.46875 l 0,5.21875 c 0,0.359375 -0.03125,0.46875 -0.796875,0.46875 l -0.234375,0 0,0.3125 c 0.34375,-0.03125 1.125,-0.03125 1.515625,-0.03125 0.40625,0 1.3125,0 1.671875,0.03125 l 0,-0.3125 -0.328125,0 C 2.25,-0.3125 2.25,-0.4375 2.25,-0.78125 l 0,-2.453125 0.84375,0 c 0.96875,0 1.0625,0.3125 1.0625,1.15625 l 0.25,0 0,-2.640625 -0.25,0 c 0,0.84375 -0.09375,1.171875 -1.0625,1.171875 l -0.84375,0 0,-2.53125 c 0,-0.328125 0.015625,-0.390625 0.484375,-0.390625 l 1.1875,0 c 1.5,0 1.75,0.5625 1.90625,1.9375 l 0.25,0 z m 0,0"
               style="stroke:none"
               inkscape:connector-curvature="0" />
          </symbol>
          <symbol
             id="textext-77b94536-3"
             overflow="visible"
             style="overflow:visible">
            <path
               id="path5213"
               d="m 5.796875,-2.578125 -0.25,0 c -0.109375,1.015625 -0.25,2.265625 -2,2.265625 l -0.8125,0 C 2.265625,-0.3125 2.25,-0.375 2.25,-0.703125 l 0,-5.3125 C 2.25,-6.359375 2.25,-6.5 3.1875,-6.5 l 0.328125,0 0,-0.3125 C 3.15625,-6.78125 2.25,-6.78125 1.84375,-6.78125 c -0.390625,0 -1.171875,0 -1.515625,-0.03125 l 0,0.3125 0.234375,0 c 0.765625,0 0.796875,0.109375 0.796875,0.46875 l 0,5.25 c 0,0.359375 -0.03125,0.46875 -0.796875,0.46875 l -0.234375,0 0,0.3125 5.1875,0 z m 0,0"
               style="stroke:none"
               inkscape:connector-curvature="0" />
          </symbol>
        </g>
      </defs>
      <g
         id="textext-77b94536-4">
        <g
           id="g5216"
           style="fill:#000000;fill-opacity:1">
          <use
             id="use5218"
             y="134.765"
             x="223.43201"
             xlink:href="#textext-77b94536-1"
             width="744.09448"
             height="1052.3622" />
          <use
             id="use5220"
             y="134.765"
             x="230.62698"
             xlink:href="#textext-77b94536-2"
             width="744.09448"
             height="1052.3622" />
          <use
             id="use5222"
             y="134.765"
             x="237.13057"
             xlink:href="#textext-77b94536-3"
             width="744.09448"
             height="1052.3622" />
        </g>
      </g>
    </g>
    <g
       style="display:inline;opacity:0.92000002"
       id="g6718"
       ns0:preamble=""
       ns0:text="2SC"
       transform="matrix(1.6034478,0,0,1.6034478,15.29027,501.7423)">
      <defs
         id="defs6720">
        <g
           id="g6722">
          <symbol
             id="textext-345094ad-0"
             overflow="visible"
             style="overflow:visible">
            <path
               id="path6725"
               d=""
               style="stroke:none"
               inkscape:connector-curvature="0" />
          </symbol>
          <symbol
             id="textext-345094ad-1"
             overflow="visible"
             style="overflow:visible">
            <path
               id="path6728"
               d="m 1.265625,-0.765625 1.0625,-1.03125 c 1.546875,-1.375 2.140625,-1.90625 2.140625,-2.90625 0,-1.140625 -0.890625,-1.9375 -2.109375,-1.9375 -1.125,0 -1.859375,0.921875 -1.859375,1.8125 0,0.546875 0.5,0.546875 0.53125,0.546875 0.171875,0 0.515625,-0.109375 0.515625,-0.53125 0,-0.25 -0.1875,-0.515625 -0.53125,-0.515625 -0.078125,0 -0.09375,0 -0.125,0.015625 0.21875,-0.65625 0.765625,-1.015625 1.34375,-1.015625 0.90625,0 1.328125,0.8125 1.328125,1.625 C 3.5625,-3.90625 3.078125,-3.125 2.515625,-2.5 l -1.90625,2.125 C 0.5,-0.265625 0.5,-0.234375 0.5,0 l 3.703125,0 0.265625,-1.734375 -0.234375,0 C 4.171875,-1.4375 4.109375,-1 4,-0.84375 3.9375,-0.765625 3.28125,-0.765625 3.0625,-0.765625 Z m 0,0"
               style="stroke:none"
               inkscape:connector-curvature="0" />
          </symbol>
          <symbol
             id="textext-345094ad-2"
             overflow="visible"
             style="overflow:visible">
            <path
               id="path6731"
               d="m 3.484375,-3.875 -1.28125,-0.296875 c -0.625,-0.15625 -1,-0.6875 -1,-1.265625 0,-0.703125 0.53125,-1.3125 1.3125,-1.3125 1.65625,0 1.875,1.640625 1.9375,2.078125 0.015625,0.0625 0.015625,0.125 0.125,0.125 0.125,0 0.125,-0.046875 0.125,-0.234375 l 0,-2 c 0,-0.171875 0,-0.25 -0.109375,-0.25 -0.0625,0 -0.078125,0.015625 -0.140625,0.140625 l -0.359375,0.5625 C 3.796875,-6.625 3.390625,-7.03125 2.5,-7.03125 c -1.109375,0 -1.9375,0.875 -1.9375,1.9375 0,0.828125 0.53125,1.5625 1.296875,1.828125 0.109375,0.03125 0.625,0.15625 1.328125,0.328125 0.265625,0.0625 0.5625,0.140625 0.84375,0.5 0.203125,0.265625 0.3125,0.59375 0.3125,0.921875 0,0.703125 -0.5,1.421875 -1.34375,1.421875 -0.28125,0 -1.046875,-0.046875 -1.578125,-0.53125 C 0.84375,-1.171875 0.8125,-1.796875 0.8125,-2.15625 0.796875,-2.265625 0.71875,-2.265625 0.6875,-2.265625 c -0.125,0 -0.125,0.078125 -0.125,0.25 l 0,2 c 0,0.171875 0,0.234375 0.109375,0.234375 0.0625,0 0.078125,-0.015625 0.140625,-0.125 0,-0.015625 0.03125,-0.046875 0.359375,-0.578125 0.3125,0.34375 0.953125,0.703125 1.84375,0.703125 1.15625,0 1.953125,-0.96875 1.953125,-2.078125 0,-0.984375 -0.65625,-1.8125 -1.484375,-2.015625 z m 0,0"
               style="stroke:none"
               inkscape:connector-curvature="0" />
          </symbol>
          <symbol
             id="textext-345094ad-3"
             overflow="visible"
             style="overflow:visible">
            <path
               id="path6734"
               d="m 0.5625,-3.40625 c 0,2.0625 1.609375,3.625 3.46875,3.625 1.625,0 2.59375,-1.390625 2.59375,-2.546875 C 6.625,-2.421875 6.625,-2.5 6.5,-2.5 6.390625,-2.5 6.390625,-2.4375 6.375,-2.328125 6.296875,-0.90625 5.234375,-0.09375 4.140625,-0.09375 c -0.609375,0 -2.5625,-0.328125 -2.5625,-3.3125 0,-2.96875 1.953125,-3.3125 2.5625,-3.3125 1.078125,0 1.96875,0.90625 2.171875,2.359375 0.015625,0.140625 0.015625,0.171875 0.15625,0.171875 0.15625,0 0.15625,-0.03125 0.15625,-0.234375 l 0,-2.359375 c 0,-0.171875 0,-0.25 -0.109375,-0.25 -0.03125,0 -0.078125,0 -0.15625,0.125 l -0.5,0.734375 C 5.5,-6.53125 4.984375,-7.03125 4.03125,-7.03125 c -1.875,0 -3.46875,1.59375 -3.46875,3.625 z m 0,0"
               style="stroke:none"
               inkscape:connector-curvature="0" />
          </symbol>
        </g>
      </defs>
      <g
         id="textext-345094ad-4">
        <g
           id="g6737"
           style="fill:#000000;fill-opacity:1">
          <use
             id="use6739"
             y="134.765"
             x="223.43201"
             xlink:href="#textext-345094ad-1"
             width="744.09448"
             height="1052.3622" />
          <use
             id="use6741"
             y="134.765"
             x="228.4133"
             xlink:href="#textext-345094ad-2"
             width="744.09448"
             height="1052.3622" />
          <use
             id="use6743"
             y="134.765"
             x="233.94852"
             xlink:href="#textext-345094ad-3"
             width="744.09448"
             height="1052.3622" />
        </g>
      </g>
    </g>
  </g>
  <g
     inkscape:groupmode="layer"
     id="layer4"
     inkscape:label="Text"
     style="display:inline">
    <g
       id="g6143"
       style="display:inline"
       transform="matrix(2.5,0,0,2.5,-479.5755,435.97703)"
       ns0:preamble=""
       ns0:text="$0$">
      <defs
         id="defs6145">
        <g
           id="g6147">
          <symbol
             style="overflow:visible"
             id="textext-7008435c-0"
             overflow="visible">
            <path
               inkscape:connector-curvature="0"
               id="path6150"
               d=""
               style="stroke:none" />
          </symbol>
          <symbol
             style="overflow:visible"
             id="textext-7008435c-1"
             overflow="visible">
            <path
               inkscape:connector-curvature="0"
               id="path6153"
               d="m 4.578125,-3.1875 c 0,-0.796875 -0.046875,-1.59375 -0.390625,-2.328125 -0.453125,-0.96875 -1.28125,-1.125 -1.6875,-1.125 -0.609375,0 -1.328125,0.265625 -1.75,1.1875 -0.3125,0.6875 -0.359375,1.46875 -0.359375,2.265625 0,0.75 0.03125,1.640625 0.453125,2.40625 0.421875,0.796875 1.15625,1 1.640625,1 0.53125,0 1.296875,-0.203125 1.734375,-1.15625 0.3125,-0.6875 0.359375,-1.46875 0.359375,-2.25 z M 2.484375,0 C 2.09375,0 1.5,-0.25 1.328125,-1.203125 1.21875,-1.796875 1.21875,-2.71875 1.21875,-3.3125 c 0,-0.640625 0,-1.296875 0.078125,-1.828125 0.1875,-1.1875 0.9375,-1.28125 1.1875,-1.28125 0.328125,0 0.984375,0.1875 1.171875,1.171875 0.109375,0.5625 0.109375,1.3125 0.109375,1.9375 0,0.75 0,1.421875 -0.109375,2.0625 C 3.5,-0.296875 2.9375,0 2.484375,0 Z m 0,0"
               style="stroke:none" />
          </symbol>
        </g>
      </defs>
      <g
         id="textext-7008435c-2">
        <g
           id="g6156"
           style="fill:#000000;fill-opacity:1">
          <use
             height="1052.3622"
             width="744.09448"
             id="use6158"
             y="134.765"
             x="223.43201"
             xlink:href="#textext-7008435c-1" />
        </g>
      </g>
    </g>
    <g
       transform="matrix(2,0,0,2,-361.19853,217.58218)"
       ns0:text="$T$"
       ns0:preamble=""
       id="g6407">
      <defs
         id="defs6409">
        <g
           id="g6411">
          <symbol
             style="overflow:visible"
             overflow="visible"
             id="textext-a1219be8-0">
            <path
               inkscape:connector-curvature="0"
               style="stroke:none"
               d=""
               id="path6414" />
          </symbol>
          <symbol
             style="overflow:visible"
             overflow="visible"
             id="textext-a1219be8-1">
            <path
               inkscape:connector-curvature="0"
               style="stroke:none"
               d="m 4.25,-6.046875 c 0.078125,-0.28125 0.109375,-0.34375 0.234375,-0.375 0.09375,-0.015625 0.421875,-0.015625 0.625,-0.015625 1.015625,0 1.453125,0.03125 1.453125,0.8125 0,0.15625 -0.03125,0.546875 -0.078125,0.796875 0,0.046875 -0.03125,0.15625 -0.03125,0.1875 0,0.0625 0.03125,0.140625 0.125,0.140625 0.109375,0 0.125,-0.078125 0.15625,-0.234375 L 7,-6.46875 C 7.015625,-6.515625 7.015625,-6.609375 7.015625,-6.640625 7.015625,-6.75 6.921875,-6.75 6.75,-6.75 l -5.53125,0 c -0.234375,0 -0.25,0.015625 -0.328125,0.203125 l -0.59375,1.75 c 0,0.015625 -0.0625,0.15625 -0.0625,0.1875 0,0.046875 0.0625,0.109375 0.125,0.109375 0.09375,0 0.109375,-0.0625 0.171875,-0.21875 C 1.0625,-6.265625 1.328125,-6.4375 2.796875,-6.4375 l 0.390625,0 c 0.28125,0 0.28125,0.03125 0.28125,0.125 0,0.046875 -0.03125,0.171875 -0.046875,0.203125 L 2.09375,-0.78125 C 2,-0.421875 1.96875,-0.3125 0.90625,-0.3125 c -0.359375,0 -0.421875,0 -0.421875,0.1875 C 0.484375,0 0.59375,0 0.65625,0 c 0.265625,0 0.546875,-0.015625 0.8125,-0.015625 0.28125,0 0.578125,-0.015625 0.859375,-0.015625 0.28125,0 0.546875,0.015625 0.828125,0.015625 C 3.4375,-0.015625 3.734375,0 4.015625,0 c 0.09375,0 0.21875,0 0.21875,-0.203125 0,-0.109375 -0.078125,-0.109375 -0.34375,-0.109375 -0.234375,0 -0.375,0 -0.625,-0.015625 -0.296875,-0.03125 -0.375,-0.0625 -0.375,-0.21875 0,-0.015625 0,-0.0625 0.046875,-0.203125 z m 0,0"
               id="path6417" />
          </symbol>
        </g>
      </defs>
      <g
         id="textext-a1219be8-2">
        <g
           style="fill:#000000;fill-opacity:1"
           id="g6420">
          <use
             height="1052.3622"
             width="744.09448"
             xlink:href="#textext-a1219be8-1"
             x="223.43201"
             y="134.765"
             id="use6422" />
        </g>
      </g>
    </g>
    <flowRoot
       style="font-style:italic;font-variant:normal;font-weight:normal;font-stretch:normal;font-size:45px;line-height:125%;font-family:'Century Schoolbook L';-inkscape-font-specification:'Century Schoolbook L Italic';text-align:start;letter-spacing:0px;word-spacing:0px;writing-mode:lr-tb;text-anchor:start;fill:#000000;fill-opacity:1;stroke:none"
       id="flowRoot8346"
       xml:space="preserve"><flowRegion
         id="flowRegion8348"><rect
           y="262.52393"
           x="470.22598"
           height="167.5843"
           width="72.831993"
           id="rect8350" /></flowRegion><flowPara
         id="flowPara8352" /></flowRoot>    <g
       ns0:text="$\\mu_B$\n"
       ns0:preamble=""
       transform="matrix(2.5,0,0,2.5,38.259995,434.15082)"
       id="g3647">
      <defs
         id="defs3649">
        <g
           id="g3651">
          <symbol
             overflow="visible"
             id="textext-283ccbb0-0"
             style="overflow:visible">
            <path
               style="stroke:none"
               d=""
               id="path3654"
               inkscape:connector-curvature="0" />
          </symbol>
          <symbol
             overflow="visible"
             id="textext-283ccbb0-1"
             style="overflow:visible">
            <path
               style="stroke:none"
               d="m 2.296875,-3.5 c 0.0625,-0.203125 0.15625,-0.59375 0.15625,-0.640625 0,-0.171875 -0.125,-0.265625 -0.296875,-0.265625 -0.015625,0 -0.296875,0.015625 -0.390625,0.359375 l -1.4375,5.765625 c -0.03125,0.125 -0.03125,0.140625 -0.03125,0.171875 0,0.140625 0.109375,0.265625 0.28125,0.265625 0.203125,0 0.328125,-0.1875 0.34375,-0.21875 C 0.96875,1.859375 1.09375,1.328125 1.46875,-0.203125 1.796875,0.0625 2.25,0.109375 2.4375,0.109375 c 0.703125,0 1.09375,-0.453125 1.328125,-0.734375 0.09375,0.453125 0.46875,0.734375 0.90625,0.734375 0.34375,0 0.578125,-0.234375 0.734375,-0.546875 0.171875,-0.359375 0.296875,-0.96875 0.296875,-0.984375 0,-0.109375 -0.09375,-0.109375 -0.125,-0.109375 -0.09375,0 -0.109375,0.046875 -0.140625,0.1875 -0.15625,0.640625 -0.34375,1.234375 -0.75,1.234375 -0.265625,0 -0.296875,-0.265625 -0.296875,-0.453125 0,-0.21875 0.109375,-0.6875 0.1875,-1.046875 L 4.859375,-2.6875 C 4.890625,-2.828125 5,-3.203125 5.03125,-3.359375 5.078125,-3.59375 5.1875,-3.96875 5.1875,-4.03125 c 0,-0.171875 -0.140625,-0.265625 -0.296875,-0.265625 -0.046875,0 -0.3125,0.015625 -0.390625,0.34375 l -0.46875,1.875 c -0.109375,0.5 -0.21875,0.90625 -0.25,1.015625 -0.015625,0.046875 -0.484375,0.953125 -1.296875,0.953125 -0.5,0 -0.734375,-0.328125 -0.734375,-0.875 0,-0.28125 0.0625,-0.5625 0.140625,-0.84375 z m 0,0"
               id="path3657"
               inkscape:connector-curvature="0" />
          </symbol>
          <symbol
             overflow="visible"
             id="textext-283ccbb0-2"
             style="overflow:visible">
            <path
               style="stroke:none"
               d=""
               id="path3660"
               inkscape:connector-curvature="0" />
          </symbol>
          <symbol
             overflow="visible"
             id="textext-283ccbb0-3"
             style="overflow:visible">
            <path
               style="stroke:none"
               d="M 1.328125,-0.546875 C 1.265625,-0.3125 1.25,-0.25 0.703125,-0.25 0.59375,-0.25 0.5,-0.25 0.5,-0.109375 0.5,0 0.578125,0 0.703125,0 L 3.40625,0 c 1.171875,0 2.078125,-0.796875 2.078125,-1.484375 0,-0.5 -0.453125,-0.921875 -1.203125,-1 0.84375,-0.15625 1.546875,-0.6875 1.546875,-1.28125 0,-0.53125 -0.53125,-1 -1.4375,-1 l -2.53125,0 c -0.140625,0 -0.234375,0 -0.234375,0.15625 0,0.09375 0.09375,0.09375 0.234375,0.09375 0,0 0.140625,0 0.265625,0.015625 0.140625,0.015625 0.15625,0.03125 0.15625,0.109375 0,0 0,0.046875 -0.03125,0.140625 z m 1.109375,-2.03125 0.421875,-1.6875 c 0.0625,-0.21875 0.0625,-0.25 0.359375,-0.25 l 1.0625,0 c 0.703125,0 0.875,0.46875 0.875,0.734375 0,0.5625 -0.640625,1.203125 -1.578125,1.203125 z M 2.109375,-0.25 C 1.890625,-0.25 1.875,-0.265625 1.875,-0.328125 c 0,0 0,-0.03125 0.03125,-0.140625 l 0.484375,-1.90625 1.484375,0 c 0.640625,0 0.90625,0.4375 0.90625,0.828125 0,0.703125 -0.71875,1.296875 -1.5625,1.296875 z m 0,0"
               id="path3663"
               inkscape:connector-curvature="0" />
          </symbol>
        </g>
      </defs>
      <g
         id="textext-283ccbb0-4">
        <g
           style="fill:#000000;fill-opacity:1"
           id="g3666">
          <use
             xlink:href="#textext-283ccbb0-1"
             x="223.43201"
             y="134.765"
             id="use3668"
             width="744.09448"
             height="1052.3622" />
        </g>
        <g
           style="fill:#000000;fill-opacity:1"
           id="g3670">
          <use
             xlink:href="#textext-283ccbb0-3"
             x="229.435"
             y="136.259"
             id="use3672"
             width="744.09448"
             height="1052.3622" />
        </g>
      </g>
    </g>
    <g
       id="g5045"
       transform="matrix(1.4655167,0,0,1.4655167,-16.485039,587.85374)"
       ns0:preamble=""
       ns0:text="1 GeV">
      <defs
         id="defs5047">
        <g
           id="g5049">
          <symbol
             id="textext-22838818-0"
             overflow="visible"
             style="overflow:visible">
            <path
               id="path5052"
               d=""
               style="stroke:none"
               inkscape:connector-curvature="0" />
          </symbol>
          <symbol
             id="textext-22838818-1"
             overflow="visible"
             style="overflow:visible">
            <path
               id="path5055"
               d="m 2.9375,-6.375 c 0,-0.25 0,-0.265625 -0.234375,-0.265625 C 2.078125,-6 1.203125,-6 0.890625,-6 l 0,0.3125 c 0.203125,0 0.78125,0 1.296875,-0.265625 l 0,5.171875 c 0,0.359375 -0.03125,0.46875 -0.921875,0.46875 l -0.3125,0 0,0.3125 c 0.34375,-0.03125 1.203125,-0.03125 1.609375,-0.03125 0.390625,0 1.265625,0 1.609375,0.03125 l 0,-0.3125 -0.3125,0 c -0.90625,0 -0.921875,-0.109375 -0.921875,-0.46875 z m 0,0"
               style="stroke:none"
               inkscape:connector-curvature="0" />
          </symbol>
          <symbol
             id="textext-22838818-2"
             overflow="visible"
             style="overflow:visible">
            <path
               id="path5058"
               d="m 5.90625,-0.625 c 0.140625,0.21875 0.53125,0.609375 0.640625,0.609375 0.09375,0 0.09375,-0.078125 0.09375,-0.21875 l 0,-1.734375 c 0,-0.390625 0.03125,-0.4375 0.6875,-0.4375 l 0,-0.3125 c -0.375,0 -0.921875,0.03125 -1.21875,0.03125 -0.390625,0 -1.25,0 -1.609375,-0.03125 l 0,0.3125 0.328125,0 C 5.71875,-2.40625 5.75,-2.296875 5.75,-1.9375 l 0,0.640625 c 0,1.125 -1.265625,1.203125 -1.546875,1.203125 -0.640625,0 -2.625,-0.34375 -2.625,-3.3125 0,-2.984375 1.96875,-3.3125 2.5625,-3.3125 1.078125,0 1.984375,0.890625 2.171875,2.359375 0.03125,0.140625 0.03125,0.171875 0.171875,0.171875 0.15625,0 0.15625,-0.03125 0.15625,-0.234375 l 0,-2.359375 c 0,-0.171875 0,-0.25 -0.109375,-0.25 -0.046875,0 -0.078125,0 -0.15625,0.125 l -0.5,0.734375 C 5.546875,-6.484375 5.015625,-7.03125 4.03125,-7.03125 c -1.859375,0 -3.46875,1.578125 -3.46875,3.625 0,2.046875 1.59375,3.625 3.484375,3.625 0.734375,0 1.53125,-0.265625 1.859375,-0.84375 z m 0,0"
               style="stroke:none"
               inkscape:connector-curvature="0" />
          </symbol>
          <symbol
             id="textext-22838818-3"
             overflow="visible"
             style="overflow:visible">
            <path
               id="path5061"
               d="M 1.109375,-2.515625 C 1.171875,-4 2.015625,-4.25 2.359375,-4.25 c 1.015625,0 1.125,1.34375 1.125,1.734375 z m 0,0.21875 2.78125,0 c 0.21875,0 0.25,0 0.25,-0.21875 0,-0.984375 -0.546875,-1.953125 -1.78125,-1.953125 -1.15625,0 -2.078125,1.03125 -2.078125,2.28125 0,1.328125 1.046875,2.296875 2.1875,2.296875 C 3.6875,0.109375 4.140625,-1 4.140625,-1.1875 4.140625,-1.28125 4.0625,-1.3125 4,-1.3125 c -0.078125,0 -0.109375,0.0625 -0.125,0.140625 -0.34375,1.03125 -1.25,1.03125 -1.34375,1.03125 -0.5,0 -0.890625,-0.296875 -1.125,-0.671875 -0.296875,-0.46875 -0.296875,-1.125 -0.296875,-1.484375 z m 0,0"
               style="stroke:none"
               inkscape:connector-curvature="0" />
          </symbol>
          <symbol
             id="textext-22838818-4"
             overflow="visible"
             style="overflow:visible">
            <path
               id="path5064"
               d="M 6.1875,-5.828125 C 6.328125,-6.203125 6.59375,-6.484375 7.28125,-6.5 l 0,-0.3125 c -0.3125,0.03125 -0.71875,0.03125 -0.96875,0.03125 -0.296875,0 -0.875,-0.015625 -1.140625,-0.03125 l 0,0.3125 C 5.6875,-6.484375 5.90625,-6.234375 5.90625,-6 c 0,0.078125 -0.03125,0.140625 -0.046875,0.203125 L 4.03125,-1 2.125,-6.03125 C 2.0625,-6.171875 2.0625,-6.1875 2.0625,-6.203125 2.0625,-6.5 2.625,-6.5 2.875,-6.5 l 0,-0.3125 c -0.359375,0.03125 -1.046875,0.03125 -1.421875,0.03125 -0.46875,0 -0.90625,-0.015625 -1.265625,-0.03125 l 0,0.3125 c 0.65625,0 0.84375,0 0.984375,0.375 L 3.484375,0 c 0.0625,0.1875 0.109375,0.21875 0.25,0.21875 0.15625,0 0.1875,-0.046875 0.234375,-0.1875 z m 0,0"
               style="stroke:none"
               inkscape:connector-curvature="0" />
          </symbol>
        </g>
      </defs>
      <g
         id="textext-22838818-5">
        <g
           id="g5067"
           style="fill:#000000;fill-opacity:1">
          <use
             id="use5069"
             y="134.765"
             x="223.43201"
             xlink:href="#textext-22838818-1"
             width="744.09448"
             height="1052.3622" />
        </g>
        <g
           id="g5071"
           style="fill:#000000;fill-opacity:1">
          <use
             id="use5073"
             y="134.765"
             x="231.73085"
             xlink:href="#textext-22838818-2"
             width="744.09448"
             height="1052.3622" />
          <use
             id="use5075"
             y="134.765"
             x="239.54849"
             xlink:href="#textext-22838818-3"
             width="744.09448"
             height="1052.3622" />
          <use
             id="use5077"
             y="134.765"
             x="243.97588"
             xlink:href="#textext-22838818-4"
             width="744.09448"
             height="1052.3622" />
        </g>
      </g>
    </g>
    <g
       ns0:text="\\footnotesize{$T_c$}"
       ns0:preamble=""
       transform="matrix(2,0,0,2,-364.3735,308.02568)"
       id="g5335">
      <defs
         id="defs5337">
        <g
           id="g5339">
          <symbol
             overflow="visible"
             id="textext-90776d87-0"
             style="overflow:visible">
            <path
               style="stroke:none"
               d=""
               id="path5342"
               inkscape:connector-curvature="0" />
          </symbol>
          <symbol
             overflow="visible"
             id="textext-90776d87-1"
             style="overflow:visible">
            <path
               style="stroke:none"
               d="M 3.609375,-4.828125 C 3.671875,-5.109375 3.6875,-5.125 4.015625,-5.125 l 0.59375,0 c 0.828125,0 0.921875,0.265625 0.921875,0.65625 0,0.203125 -0.046875,0.546875 -0.046875,0.59375 -0.015625,0.078125 -0.03125,0.15625 -0.03125,0.171875 0,0.09375 0.078125,0.125 0.125,0.125 0.09375,0 0.125,-0.046875 0.140625,-0.203125 l 0.21875,-1.5 c 0,-0.109375 -0.09375,-0.109375 -0.234375,-0.109375 l -4.703125,0 c -0.1875,0 -0.21875,0 -0.265625,0.171875 L 0.25,-3.84375 c -0.015625,0.046875 -0.046875,0.109375 -0.046875,0.15625 0,0.0625 0.0625,0.109375 0.125,0.109375 0.09375,0 0.109375,-0.046875 0.15625,-0.171875 C 0.9375,-5.03125 1.15625,-5.125 2.375,-5.125 l 0.3125,0 c 0.234375,0 0.25,0.015625 0.25,0.078125 0,0.015625 -0.03125,0.171875 -0.046875,0.203125 l -1.046875,4.1875 c -0.078125,0.3125 -0.09375,0.390625 -0.921875,0.390625 -0.265625,0 -0.34375,0 -0.34375,0.15625 0,0 0,0.109375 0.140625,0.109375 0.21875,0 0.765625,-0.03125 0.984375,-0.03125 l 0.671875,0 c 0.21875,0 0.78125,0.03125 1,0.03125 0.0625,0 0.1875,0 0.1875,-0.15625 0,-0.109375 -0.09375,-0.109375 -0.296875,-0.109375 -0.203125,0 -0.265625,0 -0.46875,-0.015625 -0.25,-0.015625 -0.28125,-0.046875 -0.28125,-0.15625 0,-0.03125 0,-0.0625 0.03125,-0.140625 z m 0,0"
               id="path5345"
               inkscape:connector-curvature="0" />
          </symbol>
          <symbol
             overflow="visible"
             id="textext-90776d87-2"
             style="overflow:visible">
            <path
               style="stroke:none"
               d=""
               id="path5348"
               inkscape:connector-curvature="0" />
          </symbol>
          <symbol
             overflow="visible"
             id="textext-90776d87-3"
             style="overflow:visible">
            <path
               style="stroke:none"
               d="M 2.78125,-2.296875 C 2.703125,-2.28125 2.5,-2.171875 2.5,-1.953125 c 0,0.140625 0.109375,0.21875 0.234375,0.21875 0.140625,0 0.34375,-0.09375 0.34375,-0.390625 C 3.078125,-2.5 2.625,-2.640625 2.25,-2.640625 1.3125,-2.640625 0.453125,-1.84375 0.453125,-1 c 0,0.5625 0.40625,1.0625 1.1875,1.0625 1.125,0 1.546875,-0.59375 1.546875,-0.671875 0,-0.046875 -0.0625,-0.109375 -0.109375,-0.109375 -0.03125,0 -0.03125,0 -0.125,0.09375 -0.328125,0.375 -0.875,0.484375 -1.3125,0.484375 -0.484375,0 -0.671875,-0.3125 -0.671875,-0.671875 0,-0.015625 0.015625,-0.703125 0.421875,-1.21875 C 1.484375,-2.125 1.796875,-2.4375 2.25,-2.4375 c 0.03125,0 0.34375,0 0.53125,0.140625 z m 0,0"
               id="path5351"
               inkscape:connector-curvature="0" />
          </symbol>
        </g>
      </defs>
      <g
         id="textext-90776d87-4">
        <g
           style="fill:#000000;fill-opacity:1"
           id="g5354">
          <use
             xlink:href="#textext-90776d87-1"
             x="223.43201"
             y="134.765"
             id="use5356"
             width="744.09448"
             height="1052.3622" />
        </g>
        <g
           style="fill:#000000;fill-opacity:1"
           id="g5358">
          <use
             xlink:href="#textext-90776d87-3"
             x="228.362"
             y="135.761"
             id="use5360"
             width="744.09448"
             height="1052.3622" />
        </g>
      </g>
    </g>
  </g>
</svg>
